<?xml version="1.0" standalone="no"?>
<!DOCTYPE svg PUBLIC "-//W3C//DTD SVG 20010904//EN"
 "http://www.w3.org/TR/2001/REC-SVG-20010904/DTD/svg10.dtd">
<svg version="1.0" xmlns="http://www.w3.org/2000/svg"
 width="5000.000000pt" height="5000.000000pt" viewBox="0 0 5000.000000 5000.000000"
 preserveAspectRatio="xMidYMid meet">

<g transform="translate(0.000000,5000.000000) scale(0.100000,-0.100000)"
fill="#000000" stroke="none">
<path d="M24260 46877 c-3 -4 -84 -7 -180 -8 -176 -2 -421 -12 -580 -23 -47
-4 -121 -9 -165 -12 -1482 -95 -2963 -429 -4210 -949 -1593 -665 -2933 -1669
-3936 -2950 -556 -711 -1008 -1535 -1253 -2281 -53 -163 -126 -438 -126 -476
0 -16 -9 -18 -74 -18 -132 0 -480 -32 -716 -66 -1599 -228 -3293 -913 -4589
-1854 -552 -400 -1080 -892 -1476 -1375 -549 -668 -952 -1425 -1179 -2211
-414 -1438 -294 -3011 361 -4734 253 -665 607 -1390 1014 -2076 67 -112 125
-207 130 -210 5 -3 9 4 9 16 0 12 16 92 36 178 266 1171 851 2329 1546 3057
l85 89 58 -33 c31 -18 193 -119 359 -225 397 -255 573 -360 791 -472 314 -162
562 -257 806 -310 117 -25 142 -27 429 -30 275 -2 464 6 635 30 22 3 99 12
170 21 185 23 317 44 955 150 311 52 675 110 810 130 135 19 259 37 275 40 30
4 437 51 525 60 25 2 106 9 180 15 74 6 155 12 180 15 145 13 417 20 800 20
475 0 691 -11 1095 -56 200 -23 479 -62 599 -84 43 -8 80 -15 83 -15 13 0 -32
-704 -63 -1000 -220 -2110 -886 -4129 -2015 -6111 -1055 -1853 -2507 -3630
-4314 -5278 -1205 -1099 -2686 -2232 -4157 -3180 -54 -35 -96 -66 -93 -70 8
-14 357 -159 555 -231 1111 -405 2467 -615 3670 -571 157 6 308 13 335 15 28
3 88 8 135 11 697 48 1500 202 2224 425 109 34 199 60 201 58 1 -2 6 -91 9
-198 17 -500 63 -948 152 -1470 300 -1754 957 -3303 1864 -4395 106 -128 368
-415 378 -415 4 1 60 107 124 238 106 214 314 603 413 772 736 1259 1502 2233
2275 2891 151 129 191 161 194 158 2 -2 34 -107 70 -232 397 -1367 992 -2624
1713 -3618 967 -1332 2173 -2270 3603 -2802 206 -76 499 -171 506 -164 3 3 21
95 39 204 96 572 254 1276 431 1921 377 1379 862 2596 1422 3572 239 414 527
838 779 1142 285 345 625 677 923 903 l104 79 59 -65 c397 -429 948 -1199
1399 -1954 726 -1215 1469 -2800 2023 -4317 32 -87 61 -158 64 -158 13 0 228
124 352 203 1349 857 2726 2652 3244 4227 26 80 49 147 51 149 4 5 153 -111
323 -253 970 -808 2043 -2114 3129 -3809 684 -1067 1414 -2361 1962 -3480 80
-163 148 -296 151 -296 13 -2 225 486 345 792 619 1573 1064 3503 1309 5672 8
77 18 159 20 181 14 116 66 653 80 819 8 105 17 215 20 245 2 30 7 91 10 135
3 44 7 105 10 135 2 30 7 98 10 150 3 52 8 115 10 140 2 25 9 128 15 230 5
102 12 223 15 270 2 47 7 137 10 200 3 63 7 158 10 210 35 744 46 1397 41
2480 -3 558 -8 1042 -10 1075 -2 33 -7 177 -10 320 -4 143 -8 314 -11 380 -3
66 -10 235 -15 375 -6 140 -13 302 -15 360 -10 208 -25 506 -30 575 -2 39 -7
124 -10 190 -3 66 -8 145 -10 175 -3 30 -7 96 -10 145 -9 160 -25 408 -30 470
-3 33 -12 164 -20 290 -15 209 -77 1001 -90 1135 -3 30 -12 134 -20 230 -9 96
-18 191 -20 210 -2 19 -6 64 -9 100 -14 158 -60 629 -81 825 -2 22 -16 153
-30 290 -116 1110 -380 3163 -520 4040 -8 50 -21 135 -29 190 -153 996 -369
2283 -511 3040 -177 946 -299 1558 -429 2164 -47 217 -84 396 -83 398 4 4 103
-14 1544 -284 227 -42 415 -74 418 -72 6 7 -89 321 -164 540 -110 321 -240
643 -385 956 -353 764 -864 1572 -1344 2126 -51 59 -91 107 -88 107 2 0 66 -7
143 -15 76 -8 163 -17 193 -20 30 -3 73 -8 95 -10 84 -10 144 -16 615 -64 267
-28 526 -55 575 -61 50 -5 245 -26 435 -45 190 -19 361 -37 380 -39 87 -11
190 -18 190 -13 0 9 -156 290 -323 582 -909 1591 -1897 2996 -2997 4265 -623
718 -1353 1454 -2055 2070 -2394 2099 -5155 3531 -8360 4334 -1264 316 -2663
543 -4055 656 -343 28 -347 28 -620 45 -328 20 -399 24 -575 30 -82 3 -179 8
-215 10 -118 8 -995 18 -1000 12z m1615 -1618 c372 -16 442 -20 495 -24 30 -2
96 -7 145 -10 207 -13 790 -69 940 -90 17 -2 102 -13 190 -25 2141 -284 4268
-994 6220 -2078 2272 -1261 4372 -3038 6131 -5187 248 -303 719 -914 710 -922
-1 -1 -451 -3 -999 -3 -548 0 -997 -4 -997 -8 0 -4 661 -817 1469 -1807 807
-990 1467 -1801 1466 -1803 -1 -2 -605 76 -990 129 -465 63 -800 104 -803 98
-2 -3 22 -105 52 -225 102 -409 262 -1113 360 -1584 338 -1633 566 -3056 811
-5085 3 -22 17 -141 30 -265 14 -124 28 -243 30 -265 38 -304 160 -1600 210
-2225 8 -107 17 -220 20 -250 3 -30 16 -215 30 -410 14 -195 27 -386 30 -425
5 -62 36 -562 50 -800 3 -49 8 -126 10 -170 21 -341 50 -953 70 -1440 8 -203
17 -422 20 -485 2 -63 7 -205 10 -315 3 -110 7 -243 10 -295 5 -99 9 -259 30
-1175 12 -530 13 -4169 2 -4255 -3 -19 -8 -195 -11 -390 -6 -354 -31 -1249
-41 -1495 -3 -71 -12 -301 -20 -510 -17 -445 -24 -599 -30 -715 -2 -47 -7
-141 -10 -210 -3 -69 -7 -163 -10 -210 -3 -47 -7 -132 -10 -190 -3 -58 -7
-143 -10 -190 -3 -47 -9 -168 -15 -270 -6 -102 -12 -219 -15 -260 -3 -41 -9
-147 -15 -235 -12 -184 -13 -211 -40 -595 -11 -157 -23 -313 -26 -348 l-6 -62
-72 122 c-1132 1937 -2970 3912 -5191 5579 -380 285 -985 709 -1013 709 -5 0
-12 -22 -16 -49 -4 -28 -24 -141 -46 -253 -192 -997 -484 -1979 -855 -2879
-249 -602 -565 -1235 -839 -1681 -49 -82 -93 -148 -96 -148 -4 0 -28 55 -54
123 -610 1560 -1486 3035 -2517 4238 -430 501 -932 998 -1340 1327 l-127 103
-44 -22 c-136 -69 -484 -293 -718 -462 -627 -453 -1257 -1037 -1791 -1657
-759 -884 -1399 -1933 -1834 -3006 -308 -759 -543 -1572 -687 -2376 -18 -104
-37 -188 -41 -188 -13 0 -264 249 -412 410 -1070 1162 -1884 2556 -2299 3933
-206 682 -318 1320 -355 2017 -8 152 -5 746 4 850 2 25 9 106 15 180 11 140
44 425 59 518 4 28 5 52 1 52 -10 0 -222 -128 -379 -230 -1133 -732 -2252
-1717 -3086 -2716 -317 -380 -624 -801 -870 -1192 -32 -51 -62 -89 -66 -85
-11 12 -101 224 -171 403 -337 872 -585 1860 -687 2740 -22 194 -27 239 -46
485 -18 235 -12 982 9 1200 19 197 19 209 4 202 -7 -3 -62 -28 -123 -55 -395
-178 -953 -325 -1506 -397 -68 -9 -137 -18 -154 -20 -278 -38 -1022 -73 -1228
-57 l-88 7 188 151 c393 317 735 625 1118 1009 1021 1023 1860 2158 2591 3506
88 164 381 757 463 939 715 1584 1188 3260 1445 5120 55 399 121 1027 141
1340 3 52 8 111 10 130 8 60 35 582 45 880 5 157 10 473 10 704 l0 419 38 -7
c20 -3 111 -18 202 -32 1516 -236 2874 -602 3778 -1019 39 -19 72 -32 72 -30
0 3 -216 471 -358 775 -19 41 -60 131 -92 200 -62 134 -106 229 -176 379 -24
52 -44 96 -44 99 0 5 394 -4 580 -13 52 -3 226 -9 385 -15 548 -19 600 -20
720 -25 106 -4 316 -12 850 -30 291 -10 441 -15 555 -20 63 -3 252 -9 420 -15
168 -6 345 -12 393 -14 l89 -5 -7 27 c-11 46 -143 330 -232 502 -653 1256
-1717 2401 -3188 3432 -1267 888 -2906 1699 -4512 2232 l-263 88 0 106 c-1
475 -110 1151 -270 1686 -141 472 -357 973 -580 1344 -125 210 -121 206 -260
242 -315 82 -737 130 -1365 156 -88 4 -162 8 -163 10 -13 11 114 376 210 604
348 821 946 1584 1738 2219 1156 927 2768 1616 4633 1981 578 112 1153 192
1762 244 94 8 213 18 265 21 52 3 118 8 145 10 49 4 156 10 480 24 213 10
1136 10 1350 0z m-10210 -6084 c66 -3 183 -7 260 -10 77 -3 171 -8 208 -11
l69 -6 29 -66 c147 -326 320 -865 383 -1190 51 -261 60 -348 60 -557 0 -228
-12 -303 -68 -421 -59 -124 -226 -356 -429 -597 -55 -65 -98 -119 -96 -121 2
-2 90 -28 194 -59 2441 -720 4822 -1951 6540 -3381 460 -383 890 -804 1191
-1166 77 -93 229 -292 245 -321 6 -12 -87 29 -258 114 -1510 748 -3767 1473
-5798 1862 -694 133 -1514 252 -2130 310 -173 16 -270 25 -340 30 -44 3 -102
7 -130 10 -27 2 -90 7 -140 10 -49 3 -164 10 -255 15 -393 24 -1023 31 -1506
17 -244 -6 -669 -29 -784 -42 -25 -2 -76 -7 -115 -10 -788 -64 -1701 -231
-2455 -448 -470 -136 -701 -221 -965 -357 -390 -200 -678 -412 -1006 -739
-266 -267 -466 -523 -633 -815 -220 -382 -399 -872 -472 -1294 -21 -123 -19
-124 -89 79 -198 576 -328 1270 -365 1944 -8 157 -5 707 5 815 3 30 12 127 21
215 113 1199 564 2331 1309 3290 249 321 698 792 1002 1053 1036 886 1975
1358 3233 1626 358 76 849 146 1275 181 39 3 88 8 110 10 22 2 101 7 175 10
74 4 146 9 160 11 14 2 174 7 355 10 182 4 332 9 335 11 5 5 674 -4 875 -12z
m330 -6669 c194 -6 239 -8 590 -26 207 -11 235 -12 470 -30 1808 -136 3491
-476 4969 -1004 255 -92 546 -203 536 -206 -10 -3 -98 -9 -275 -20 -99 -6
-214 -13 -255 -15 -41 -3 -154 -10 -250 -15 -96 -6 -202 -12 -235 -15 -33 -2
-107 -7 -165 -10 -58 -3 -211 -12 -340 -20 -129 -8 -252 -15 -274 -15 -31 0
-37 -3 -32 -16 4 -9 114 -184 246 -390 132 -205 240 -375 240 -378 0 -2 -35 7
-77 20 -208 66 -764 221 -1068 297 -1056 266 -2062 457 -3175 601 -491 64
-1032 117 -1550 150 -522 35 -705 40 -1400 40 -693 1 -978 -4 -1280 -24 -80
-5 -183 -12 -230 -15 -47 -3 -107 -7 -135 -10 -27 -2 -81 -7 -120 -10 -38 -3
-88 -8 -110 -10 -22 -2 -71 -7 -110 -10 -66 -6 -369 -40 -593 -67 -117 -14
-166 -7 -278 38 -184 73 -497 280 -797 528 l-98 81 30 12 c16 7 100 30 188 52
463 116 1020 212 1823 316 255 33 782 84 1135 110 116 8 237 17 270 20 33 2
112 7 175 10 63 3 144 8 180 10 406 26 1466 37 1995 21z"/>
<path d="M26024 40889 c-273 -19 -625 -122 -1029 -301 -310 -137 -672 -328
-1350 -713 -768 -436 -1227 -670 -1600 -813 -559 -215 -983 -274 -1318 -183
-203 54 -465 159 -872 346 -115 54 -298 138 -405 187 -317 147 -433 187 -446
154 -7 -19 180 -325 417 -681 476 -714 912 -1209 1274 -1448 115 -76 183 -110
298 -149 89 -31 97 -32 257 -32 138 1 185 5 290 27 322 67 640 184 1105 405
104 50 190 90 191 89 1 -1 4 -58 8 -127 32 -659 390 -1285 946 -1655 288 -192
595 -308 933 -351 175 -22 470 -15 638 15 831 149 1501 764 1709 1567 57 221
64 279 64 549 1 255 -7 330 -50 499 -8 32 -13 60 -11 63 13 12 274 -130 1267
-689 932 -525 1438 -778 1639 -819 74 -16 97 -6 95 38 -2 37 -168 411 -305
686 -800 1598 -1873 2782 -2889 3187 -195 78 -422 134 -582 145 -46 3 -101 7
-123 9 -22 1 -90 -1 -151 -5z m32 -2124 c126 -37 235 -146 274 -273 80 -259
-111 -521 -384 -525 -172 -2 -324 101 -388 263 -30 76 -31 213 -1 287 45 113
141 205 255 244 65 23 176 24 244 4z m-2100 -1161 c85 -46 227 -158 348 -273
200 -190 361 -306 548 -396 219 -105 365 -140 583 -139 166 1 237 13 398 68
53 18 97 31 97 28 0 -14 -90 -119 -158 -184 -202 -192 -423 -285 -707 -295
-278 -10 -513 59 -755 220 -106 71 -292 262 -359 370 -99 161 -168 353 -178
497 -10 153 42 182 183 104z"/>
<path d="M12810 37740 c0 -33 7 -103 15 -156 87 -537 492 -921 1190 -1128 285
-84 733 -154 924 -144 l65 3 -135 116 c-697 600 -1281 1020 -1734 1246 -103
52 -282 123 -310 123 -12 0 -15 -13 -15 -60z"/>
</g>
</svg>
