<svg aria-hidden="true" style="position: absolute; width: 0; height: 0; overflow: hidden;" version="1.1" xmlns="http://www.w3.org/2000/svg" xmlns:xlink="http://www.w3.org/1999/xlink">
<defs>
<symbol id="icon-iconmonstr-github" viewBox="0 0 32 32">
<path d="M25.333 0h-18.667c-3.682 0-6.667 2.985-6.667 6.667v0 18.667c0 3.682 2.985 6.667 6.667 6.667v0h18.667c3.682 0 6.667-2.985 6.667-6.667v0-18.667c0-3.682-2.985-6.667-6.667-6.667v0zM19.379 26.12c-0.54 0.104-0.712-0.228-0.712-0.512v-2.927c0-0.996-0.349-1.644-0.733-1.975 2.376-0.264 4.872-1.167 4.872-5.263 0-1.165-0.416-2.117-1.097-2.863 0.109-0.269 0.475-1.355-0.105-2.823 0 0-0.895-0.287-2.931 1.093-0.801-0.228-1.721-0.36-2.671-0.361h-0.001c-0.95 0.001-1.87 0.132-2.742 0.376l0.072-0.017c-2.037-1.38-2.933-1.093-2.933-1.093-0.579 1.469-0.213 2.553-0.103 2.824-0.681 0.733-1.099 1.719-1.099 2.803 0 0.021 0 0.042 0 0.063l-0-0.003c0 4.085 2.489 5.001 4.86 5.272-0.305 0.267-0.581 0.736-0.677 1.427-0.609 0.272-2.152 0.743-3.104-0.888 0 0-0.564-1.024-1.636-1.1 0 0-1.040-0.013-0.073 0.649 0 0 0.7 0.328 1.185 1.56 0 0 0.617 1.904 3.584 1.259v1.985c0 0.281-0.172 0.612-0.704 0.513-4.275-1.455-7.296-5.435-7.296-10.12 0-5.891 4.775-10.666 10.666-10.667v0c0.002 0 0.005 0 0.008 0 5.891 0 10.667 4.776 10.667 10.667 0 4.685-3.021 8.665-7.221 10.098l-0.075 0.022z"></path>
</symbol>
<symbol id="icon-iconmonstr-linkedin" viewBox="0 0 32 32">
<path d="M25.333 0h-18.667c-3.682 0-6.667 2.985-6.667 6.667v0 18.667c0 3.682 2.985 6.667 6.667 6.667v0h18.667c3.682 0 6.667-2.985 6.667-6.667v0-18.667c0-3.682-2.985-6.667-6.667-6.667v0zM10.667 25.333h-4v-14.667h4v14.667zM8.667 8.976c-1.288 0-2.333-1.053-2.333-2.352s1.045-2.352 2.333-2.352 2.333 1.053 2.333 2.352-1.044 2.352-2.333 2.352zM26.667 25.333h-4v-7.472c0-4.491-5.333-4.151-5.333 0v7.472h-4v-14.667h4v2.353c1.861-3.448 9.333-3.703 9.333 3.301v9.012z"></path>
</symbol>
</defs>
</svg>
