<?xml version="1.0" standalone="no"?>
<!DOCTYPE svg PUBLIC "-//W3C//DTD SVG 20010904//EN"
 "http://www.w3.org/TR/2001/REC-SVG-20010904/DTD/svg10.dtd">
<svg version="1.0" xmlns="http://www.w3.org/2000/svg"
 width="500.000000pt" height="500.000000pt" viewBox="0 0 500.000000 500.000000"
 preserveAspectRatio="xMidYMid meet">

<g transform="translate(0.000000,500.000000) scale(0.100000,-0.100000)"
fill="#000000" stroke="none">
<path d="M570 4521 c0 -6 10 -34 21 -63 27 -68 99 -296 99 -314 0 -17 -5 -17
-33 -3 -17 9 -16 4 9 -22 62 -68 85 -117 37 -79 -33 25 -40 13 -19 -29 18 -35
20 -45 6 -36 -17 10 -11 -41 11 -100 12 -31 18 -59 15 -62 -3 -4 -17 4 -31 17
-14 13 -27 21 -30 19 -8 -9 42 -104 69 -128 40 -38 31 -46 -19 -17 -25 15 -45
23 -45 18 0 -13 41 -48 90 -77 39 -22 41 -25 15 -19 -16 3 -38 8 -48 11 -34 9
-1 -33 53 -68 27 -18 50 -34 50 -37 0 -3 -22 -2 -50 1 -27 3 -50 4 -50 1 0 -5
66 -36 160 -77 23 -10 20 -12 -35 -17 l-60 -5 48 -30 c46 -29 65 -60 54 -89
-4 -10 -25 -16 -64 -18 -43 -2 -58 -7 -58 -18 0 -10 18 -18 54 -25 30 -5 56
-16 58 -22 4 -12 -9 -17 -82 -28 -22 -3 -48 -8 -57 -11 -32 -9 -19 -33 25 -45
78 -23 73 -42 -13 -54 -59 -8 -81 -21 -60 -35 8 -5 23 -10 32 -10 26 0 48 -11
48 -25 0 -7 -25 -18 -60 -25 -33 -7 -60 -16 -60 -20 0 -3 16 -14 36 -23 43
-21 38 -33 -19 -42 -63 -10 -77 -15 -77 -29 0 -8 14 -16 30 -19 17 -4 30 -11
30 -17 0 -13 -77 -49 -106 -50 -11 0 -29 -6 -39 -14 -17 -12 -14 -15 36 -31
30 -10 58 -21 63 -26 15 -13 -42 -78 -95 -107 -27 -15 -49 -30 -49 -33 0 -3
34 -16 75 -29 80 -25 84 -36 24 -60 -16 -7 -28 -18 -25 -25 7 -19 -4 -30 -73
-73 l-64 -40 87 -27 86 -27 -67 -72 c-80 -84 -79 -84 82 -66 61 7 126 10 145
8 l35 -3 -48 -25 c-42 -21 -46 -26 -32 -37 15 -10 14 -16 -16 -60 -17 -26 -47
-67 -66 -90 l-34 -43 93 -1 c51 -1 107 -5 123 -9 29 -7 29 -8 8 -15 -31 -10
-29 -25 2 -25 14 0 25 -2 25 -5 0 -6 -56 -82 -100 -137 -35 -43 -36 -47 -12
-43 9 2 70 6 135 9 l117 5 -6 -24 c-7 -29 -3 -30 36 -10 17 9 30 13 30 9 0 -4
-30 -47 -66 -96 l-65 -90 93 2 c163 5 208 2 208 -15 0 -8 -18 -27 -40 -41
l-41 -27 63 -35 c170 -93 249 -122 330 -122 21 0 38 -3 38 -7 0 -3 -11 -21
-26 -40 -31 -41 -25 -53 27 -53 l39 0 0 -45 c0 -52 -7 -49 149 -65 58 -6 106
-12 108 -14 2 -2 -3 -16 -12 -32 -23 -45 -19 -54 25 -54 40 0 40 0 40 -39 0
-36 4 -43 46 -70 53 -37 56 -37 79 -11 10 11 21 17 25 15 4 -3 10 -35 14 -72
8 -81 16 -97 44 -89 17 6 21 1 27 -23 8 -37 21 -47 40 -31 12 10 17 7 26 -12
6 -14 30 -34 55 -46 30 -15 49 -33 64 -62 11 -22 26 -40 33 -40 11 0 77 -77
126 -147 12 -18 26 -33 30 -33 4 0 40 45 80 100 64 88 76 100 99 98 24 -3 27
1 30 30 3 26 10 35 37 46 19 8 41 28 49 44 12 24 20 28 40 25 27 -5 29 -2 40
49 6 25 8 27 26 15 27 -16 36 -2 45 71 4 30 10 64 14 75 7 18 8 18 24 -7 17
-26 46 -35 48 -16 1 6 2 16 3 23 1 7 13 11 29 9 21 -2 29 3 37 23 5 13 7 31 4
39 -7 18 25 36 61 36 29 0 28 -2 9 66 -7 26 -2 27 149 45 l107 13 0 48 0 48
40 0 c22 0 40 2 40 5 0 2 -9 19 -20 37 -21 35 -26 53 -12 44 26 -16 206 42
286 92 22 14 59 34 83 47 l44 22 -40 27 c-62 43 -61 56 7 56 32 0 62 4 68 10
6 6 22 6 44 0 38 -11 130 -14 130 -4 0 3 -28 47 -63 98 -35 50 -67 97 -71 105
-5 7 11 2 36 -13 55 -32 60 -32 52 -2 -5 23 -5 23 45 14 28 -5 80 -8 115 -6
l63 3 -58 89 c-33 49 -59 90 -59 92 0 2 14 4 30 4 17 0 30 5 30 10 0 6 -7 10
-16 10 -8 0 -12 5 -9 10 3 6 51 10 107 10 l101 0 -20 23 c-11 12 -35 48 -53
79 -17 32 -36 61 -41 64 -16 9 -10 21 13 28 20 6 16 10 -32 32 -48 22 -53 27
-36 36 14 8 53 6 146 -7 70 -10 133 -16 139 -14 7 3 -15 36 -48 76 l-61 71 68
22 c37 13 71 26 75 30 5 4 -23 27 -62 51 -58 36 -71 48 -69 67 2 15 -5 26 -21
35 -36 18 -29 30 33 52 31 11 56 22 55 25 0 3 -21 19 -47 35 -46 30 -96 90
-87 105 3 4 27 13 55 20 57 14 70 26 38 35 -58 16 -127 48 -132 61 -3 9 5 16
26 22 46 12 46 30 1 37 -57 10 -88 21 -88 31 0 5 18 18 40 28 44 22 49 18 -52
45 -58 16 -54 35 10 53 l52 15 -70 12 c-38 6 -78 14 -88 17 -29 9 -3 31 53 44
73 17 64 50 -13 50 -51 0 -77 11 -77 30 0 19 10 24 73 35 54 9 45 25 -14 25
-58 0 -89 13 -89 38 0 18 68 90 105 111 17 10 13 10 -20 6 -22 -4 -52 -9 -67
-11 -47 -9 -31 11 28 36 31 12 72 31 92 40 l35 17 -51 -5 c-29 -2 -52 -1 -52
2 0 4 25 18 55 32 30 14 55 27 55 28 0 1 -13 1 -30 -2 -44 -6 -37 13 10 27 22
6 40 17 40 22 0 7 -8 8 -17 4 -30 -11 -73 -18 -73 -11 0 3 25 18 55 32 64 31
80 47 33 33 -57 -16 -63 -10 -22 25 35 30 94 116 79 116 -3 0 -17 -7 -31 -16
-31 -21 -38 -15 -24 21 13 33 42 197 36 202 -2 3 -16 -3 -30 -12 -23 -15 -26
-15 -26 -2 0 9 4 18 10 22 5 3 19 20 32 38 15 21 17 27 5 18 -14 -11 -17 -11
-17 1 0 35 76 283 115 373 16 38 16 39 -2 25 -10 -8 -34 -28 -53 -45 -19 -18
-69 -52 -110 -77 -255 -154 -341 -194 -486 -228 -73 -17 -93 -26 -121 -55 -34
-35 -73 -47 -73 -22 -1 34 -17 39 -58 18 -23 -12 -44 -21 -48 -21 -4 0 -4 22
0 49 l7 50 -82 -46 c-87 -50 -99 -49 -99 10 0 31 -5 32 -53 12 -19 -8 -37 -12
-40 -8 -4 3 -4 25 0 49 3 24 3 44 0 44 -3 0 -43 -14 -88 -30 -45 -17 -84 -28
-87 -26 -2 3 -5 30 -6 60 -1 64 4 63 -104 15 -35 -16 -66 -29 -68 -29 -2 0 -4
19 -4 43 0 23 -3 52 -6 63 l-6 22 -43 -25 c-24 -13 -46 -20 -49 -14 -3 5 -2
31 3 57 5 27 8 50 7 52 -2 1 -23 -13 -47 -33 l-44 -34 -16 32 c-20 38 -64 48
-74 16 -8 -24 -16 -24 -48 1 -30 24 -47 26 -47 6 0 -27 -21 -28 -47 -5 l-25
24 -28 -34 -29 -34 -37 32 c-20 18 -38 30 -41 28 -2 -3 0 -29 5 -58 6 -30 9
-56 7 -57 -2 -2 -20 8 -41 22 -20 14 -41 23 -46 20 -4 -3 -8 -32 -8 -64 l0
-59 -76 35 c-98 45 -104 44 -105 -8 -1 -78 -4 -79 -84 -47 -38 16 -73 29 -76
29 -4 0 -4 -21 -1 -46 l5 -46 -41 21 c-52 27 -52 27 -52 -7 0 -16 -6 -37 -14
-48 -14 -18 -16 -18 -84 19 -38 20 -72 37 -76 37 -3 0 -6 -18 -6 -40 0 -46 -4
-47 -45 -20 -40 27 -43 26 -51 -15 -3 -19 -7 -35 -9 -35 -13 0 -76 39 -100 61
-22 20 -49 32 -90 40 -168 31 -462 182 -628 323 -37 31 -67 52 -67 47z m3771
-168 c-6 -10 -56 -68 -113 -129 -100 -107 -274 -310 -332 -386 -34 -46 -54
-50 -29 -7 41 71 458 539 480 539 2 0 -1 -8 -6 -17z m-1795 -23 c-4 8 2 4 14
-10 99 -113 102 -115 157 -115 54 0 54 0 16 -51 -13 -18 -37 -59 -53 -93 -17
-34 -33 -61 -37 -60 -20 3 -24 -2 -12 -17 10 -12 10 -17 0 -23 -10 -6 -9 -10
2 -14 20 -8 32 7 72 91 18 38 45 88 59 111 22 35 30 40 41 31 8 -7 13 -15 11
-19 -3 -4 3 -7 12 -8 23 -2 133 -31 139 -36 2 -3 -16 -30 -42 -61 -26 -33 -57
-86 -71 -126 -15 -39 -31 -70 -37 -70 -6 0 -8 -3 -4 -6 7 -8 -21 -83 -40 -105
-7 -9 -10 -18 -7 -22 3 -3 -11 -43 -31 -89 -20 -46 -41 -94 -47 -108 -5 -14
-16 -38 -24 -53 -8 -16 -14 -34 -14 -42 0 -23 -79 -171 -106 -199 -31 -30 -73
-34 -98 -8 -22 22 -86 123 -86 136 0 6 -16 44 -35 86 -19 41 -50 116 -69 165
-45 116 -113 269 -176 396 -53 105 -54 122 -1 42 17 -25 31 -42 31 -37 0 5 -6
18 -13 29 -49 72 -49 72 -27 78 18 5 26 -3 47 -46 25 -54 23 -9 -3 57 -5 14
-4 17 4 12 7 -4 12 -3 12 2 0 6 9 8 20 5 12 -3 19 -8 16 -11 -3 -2 4 -22 15
-44 11 -22 22 -38 25 -36 2 3 -3 19 -12 37 -9 18 -14 34 -11 37 6 6 63 -108
59 -118 -1 -5 4 -8 10 -8 9 0 8 -4 -2 -10 -13 -9 -13 -10 0 -10 9 0 24 -13 33
-30 17 -27 47 -33 47 -8 0 6 7 7 16 4 14 -5 15 -4 4 9 -17 20 -14 22 51 30
l56 7 -1 -111 c-1 -88 -4 -114 -16 -121 -13 -9 -13 -10 0 -10 11 0 15 -12 16
-40 1 -39 0 -40 -35 -42 l-36 -1 38 -4 c32 -4 37 -8 37 -29 0 -21 4 -25 26
-22 l26 3 -2 190 c-1 105 -4 270 -5 369 l-4 178 26 -23 c15 -13 23 -17 19 -9z
m-89 -316 c-1 -2 -32 -6 -68 -10 l-66 -6 -26 56 c-15 31 -38 73 -51 95 l-25
39 46 7 c54 8 64 -2 59 -57 -2 -22 1 -38 6 -38 7 0 9 22 5 60 -3 42 -1 62 8
70 11 9 15 0 24 -42 17 -87 20 -96 16 -38 -2 30 -7 67 -10 82 -5 20 -2 29 12
36 16 9 18 5 21 -47 2 -31 5 -65 7 -76 2 -11 4 -26 4 -32 1 -7 6 -13 12 -13 7
0 8 17 3 53 -12 90 -11 162 4 160 6 -2 13 5 14 15 1 9 4 -57 5 -147 2 -90 2
-165 0 -167z m677 115 c-23 -10 -46 -25 -52 -32 -18 -21 36 -55 92 -59 25 -2
46 -5 46 -8 0 -3 -25 -25 -55 -50 -34 -28 -50 -47 -42 -52 6 -4 23 6 39 24 15
17 31 28 35 25 8 -9 -73 -87 -91 -87 -7 0 -21 -10 -32 -21 -10 -12 -32 -28
-49 -36 l-30 -14 46 4 c55 5 125 37 121 55 -4 21 118 162 141 162 17 0 18 -2
6 -17 -13 -15 -11 -15 19 1 38 19 41 12 10 -22 l-23 -25 23 6 c12 3 22 1 22
-3 0 -4 17 -8 38 -7 65 1 140 -5 151 -13 11 -6 -23 -37 -216 -200 -120 -101
-140 -124 -147 -179 -5 -37 -21 -69 -67 -135 -33 -48 -69 -108 -80 -134 -12
-26 -38 -82 -58 -124 -21 -43 -34 -78 -29 -78 5 0 11 8 15 18 3 9 24 39 46 65
39 47 40 48 86 42 25 -4 42 -3 36 2 -5 4 -10 51 -10 103 0 81 3 100 22 130 24
38 320 337 329 332 4 -3 48 27 128 89 60 47 17 0 -82 -90 -75 -68 -100 -96
-90 -102 10 -6 9 -12 -7 -24 -18 -14 -16 -14 13 0 19 9 44 19 55 21 39 9 52
12 52 14 0 1 8 3 18 5 37 7 -13 -33 -81 -65 -50 -23 -63 -33 -54 -42 9 -9 19
-7 40 9 60 44 160 101 188 107 16 3 56 8 89 12 33 3 80 10 104 15 24 5 46 7
49 4 11 -11 -32 -45 -57 -45 -30 0 -89 -16 -111 -29 -28 -19 -2 -22 44 -7 103
35 96 16 -24 -65 -49 -33 -80 -61 -80 -71 0 -23 -1 -24 79 16 38 19 77 34 87
34 11 -1 30 2 44 7 23 7 22 5 -10 -26 -19 -19 -68 -58 -107 -88 -40 -29 -73
-57 -73 -62 0 -13 -1 -13 86 27 90 41 155 66 161 61 6 -6 -136 -102 -194 -131
-29 -14 -53 -30 -53 -35 0 -4 9 -16 20 -26 19 -17 22 -17 107 22 49 23 104 44
123 48 l35 7 -35 -24 c-44 -31 -162 -94 -450 -241 -124 -63 -280 -146 -347
-186 -68 -39 -125 -71 -129 -71 -3 0 -47 -25 -98 -55 -50 -30 -101 -55 -113
-55 -25 0 -124 51 -168 85 l-29 24 54 50 c30 27 52 52 49 55 -3 3 -17 -4 -31
-17 -106 -99 -160 -137 -194 -137 -19 0 -34 4 -34 9 0 6 -34 38 -75 73 -51 43
-75 70 -75 86 0 13 6 22 15 22 18 0 109 -65 139 -99 11 -11 26 -21 34 -21 16
0 130 93 146 118 5 10 18 12 42 7 l34 -6 1 173 c1 95 4 184 8 198 14 50 25 -3
28 -139 4 -166 7 -181 32 -174 10 3 22 0 25 -6 12 -19 64 -13 76 9 7 14 7 20
0 20 -5 0 -10 5 -10 11 0 6 9 9 19 6 14 -3 18 -1 14 10 -7 18 -46 10 -81 -18
-27 -21 -62 -25 -62 -7 0 6 36 75 79 152 108 194 217 414 225 456 l6 35 -67
-66 c-70 -67 -175 -149 -226 -176 -28 -14 -29 -14 -22 9 17 56 100 262 151
372 31 67 67 147 82 179 14 31 32 57 39 57 15 0 14 0 78 22 66 22 80 21 29 -3z
m-1190 -49 c24 -9 54 -56 70 -107 7 -21 4 -23 -28 -23 -44 0 -66 9 -66 26 0
11 -6 9 -22 -6 l-22 -20 20 -27 c11 -15 27 -29 35 -31 11 -4 12 -2 2 9 -21 21
-15 29 20 25 17 -2 44 -4 59 -5 23 -1 32 -10 57 -58 40 -81 143 -333 146 -361
3 -22 2 -23 -21 -7 -13 8 -53 39 -89 67 -52 41 -64 56 -59 73 4 15 3 16 -4 6
-8 -11 -23 -2 -71 44 -50 47 -59 60 -46 67 8 5 15 16 15 25 0 13 -3 13 -15 3
-12 -10 -19 -10 -33 2 -9 8 -30 20 -47 28 -25 11 -27 14 -11 18 35 8 127 -9
120 -21 -4 -7 -3 -8 2 -4 5 5 9 14 9 20 1 16 -52 67 -69 67 -14 0 -89 79 -108
113 -8 16 -7 18 10 13 13 -4 22 -1 26 9 3 8 10 15 17 15 6 0 9 -6 6 -14 -4 -9
2 -14 16 -14 12 1 38 -3 57 -7 l35 -8 -24 27 c-14 14 -20 26 -15 26 5 0 2 5
-6 10 -11 7 -11 10 -2 10 7 0 10 5 7 10 -8 12 -3 13 29 0z m-49 -50 c13 -6 15
-9 5 -9 -8 0 -22 4 -30 9 -18 12 -2 12 25 0z m2268 -63 c-129 -161 -238 -289
-254 -297 -22 -12 -26 1 -6 22 7 7 44 49 82 93 128 149 180 205 188 205 5 0 0
-10 -10 -23z m-2430 -67 c-32 -6 -48 6 -64 47 -8 22 -8 26 2 16 19 -19 33 -15
18 5 -7 9 6 -1 30 -23 l42 -40 -28 -5z m2538 16 c-12 -24 -28 -47 -36 -50 -23
-8 -18 8 15 49 17 21 30 42 30 48 0 6 3 8 6 4 4 -3 -3 -26 -15 -51z m-2692 18
c27 -31 27 -36 -5 -28 -22 6 -25 4 -19 -7 11 -17 -19 4 -51 37 l-21 22 37 0
c28 1 43 -6 59 -24z m49 -2 l15 -23 -31 18 c-17 10 -28 21 -25 26 7 12 25 4
41 -21z m183 -90 c-14 -5 -51 17 -51 29 0 6 14 2 30 -8 17 -10 26 -19 21 -21z
m1851 -5 c-6 -7 -33 -28 -59 -47 -56 -39 -47 -26 17 24 49 38 59 43 42 23z
m-2022 -29 c0 -6 -6 -5 -15 2 -8 7 -15 14 -15 16 0 2 7 1 15 -2 8 -4 15 -11
15 -16z m100 5 c14 -7 35 -13 47 -13 12 0 25 -5 29 -11 3 -6 20 -19 37 -29 22
-14 37 -37 58 -92 16 -40 51 -111 77 -158 33 -57 46 -87 38 -92 -10 -7 -2 -12
16 -9 8 1 130 -209 169 -293 l29 -60 -1 153 c0 84 3 156 6 159 14 15 19 -23
25 -197 7 -208 8 -210 81 -268 l40 -32 -23 -15 c-13 -8 -36 -20 -53 -27 -16
-7 -42 -21 -57 -31 -15 -10 -30 -17 -35 -16 -4 1 -18 -1 -30 -6 -18 -6 -28 -1
-47 19 -14 15 -22 33 -19 41 3 8 0 14 -6 14 -6 0 -11 -5 -11 -11 0 -5 -4 -7
-10 -4 -5 3 -10 1 -10 -5 0 -6 -28 5 -62 24 -35 20 -62 42 -62 50 1 8 -4 12
-12 9 -9 -3 -14 2 -14 16 0 12 -5 21 -11 21 -5 0 -7 -4 -4 -10 3 -5 0 -10 -7
-10 -8 0 -14 9 -15 20 -2 17 4 20 35 20 28 0 33 -3 22 -11 -11 -7 -4 -8 25 -3
46 8 58 14 27 14 -12 0 -22 5 -22 10 0 6 -10 11 -22 11 -18 1 -19 2 -5 6 22 6
12 23 -13 23 -10 0 -24 8 -29 18 -6 9 -11 11 -11 5 0 -7 -5 -13 -11 -13 -6 0
-19 -10 -29 -22 -17 -21 -17 -23 4 -40 11 -9 17 -17 12 -18 -17 0 -66 49 -55
56 8 4 8 9 -1 18 -8 8 -13 7 -20 -4 -5 -8 -12 -11 -15 -8 -15 15 9 28 50 28
24 0 46 4 49 8 2 4 45 7 96 6 68 -1 94 -5 103 -16 14 -18 93 -36 82 -19 -3 6
-17 11 -30 11 -13 0 -27 5 -31 12 -5 8 4 9 34 5 22 -4 47 -10 56 -13 9 -4 16
-1 16 6 0 16 -61 100 -73 100 -5 0 -7 9 -4 20 5 18 -3 25 -25 21 -12 -2 -9 17
3 21 6 2 3 11 -8 20 -18 17 -20 16 -37 -12 -15 -27 -15 -30 -1 -30 9 0 15 -6
13 -13 -2 -6 8 -23 20 -35 26 -26 22 -43 -5 -21 -14 12 -16 12 -11 -1 20 -49
17 -52 -16 -15 -49 56 -110 179 -90 183 8 2 12 7 9 12 -3 5 -11 7 -18 4 -7 -2
-18 10 -26 27 -8 17 -26 46 -41 63 -38 43 -44 69 -21 83 16 10 23 8 42 -8 19
-16 39 -25 39 -16 0 1 -11 24 -25 51 -14 27 -25 55 -25 62 0 14 -28 27 -40 19
-14 -9 0 -35 19 -35 13 0 13 -2 2 -9 -8 -6 -11 -16 -6 -31 6 -19 4 -22 -9 -17
-11 5 -15 3 -10 -4 4 -7 1 -10 -7 -7 -8 3 -19 15 -25 27 -7 13 -17 28 -23 34
-15 15 -14 27 3 27 10 0 12 7 8 23 -4 18 -3 20 9 11 8 -6 24 -8 39 -3 14 4 19
8 10 10 -8 1 -19 3 -25 4 -15 4 -24 5 -32 4 -9 0 -24 63 -17 70 2 2 11 -12 19
-32 11 -27 19 -35 31 -30 15 5 15 7 0 15 -9 5 -16 17 -16 26 0 10 -9 25 -20
35 -11 9 -20 14 -20 10 0 -4 -7 2 -15 14 -13 19 -20 21 -41 13 -26 -10 -62 7
-94 45 -10 12 -10 15 3 15 9 0 19 -4 22 -10 3 -5 11 -10 18 -10 6 0 5 5 -4 13
-8 6 -21 20 -28 29 -12 16 -11 18 15 16 16 -1 40 -8 54 -15z m-665 -113 c10
-11 16 -20 13 -20 -3 0 -13 9 -23 20 -10 11 -16 20 -13 20 3 0 13 -9 23 -20z
m708 2 c10 -10 14 -21 11 -25 -8 -7 -54 22 -54 34 0 15 26 10 43 -9z m-423
-50 c0 -13 -3 -13 -13 3 -8 11 -17 29 -20 40 -6 17 -4 17 13 -4 11 -13 20 -30
20 -39z m363 -61 c84 -82 135 -146 124 -157 -7 -7 -127 -7 -135 0 -3 3 26 7
64 7 l69 1 -50 14 c-45 12 -46 13 -13 11 20 -2 34 1 32 5 -3 4 -14 8 -25 8
-10 0 -19 4 -19 10 0 5 -6 7 -13 4 -7 -2 -23 6 -36 20 -13 13 -29 22 -36 20
-7 -3 -16 0 -20 6 -3 6 -3 10 2 9 22 -4 23 3 3 31 -14 20 -26 27 -38 23 -14
-6 -15 -4 -4 9 10 13 8 20 -14 41 l-26 26 24 -1 c15 -1 55 -32 111 -87z m-303
48 c0 -14 -16 -11 -29 5 -10 12 -8 13 8 9 12 -3 21 -9 21 -14z m190 -9 c0 -5
-4 -10 -10 -10 -5 0 -10 5 -10 10 0 6 5 10 10 10 6 0 10 -4 10 -10z m-219 -17
c13 -16 12 -17 -3 -4 -10 7 -18 15 -18 17 0 8 8 3 21 -13z m-22 -20 c13 -28
13 -28 -8 -9 -22 20 -27 36 -13 36 5 0 14 -12 21 -27z m68 21 c-3 -3 -12 -4
-19 -1 -8 3 -5 6 6 6 11 1 17 -2 13 -5z m93 -28 c0 -3 -4 -8 -10 -11 -5 -3
-10 -1 -10 4 0 6 5 11 10 11 6 0 10 -2 10 -4z m72 -18 c-7 -7 -12 -8 -12 -2 0
14 12 26 19 19 2 -3 -1 -11 -7 -17z m45 -15 c-25 -26 -40 -10 -15 16 15 17 23
20 26 12 2 -7 -3 -20 -11 -28z m-108 -23 c5 -16 6 -30 2 -30 -5 0 -11 8 -15
18 -3 9 -9 23 -12 30 -3 6 -1 12 4 12 6 0 15 -13 21 -30z m-123 -6 l29 -16
-30 7 c-16 3 -34 11 -39 16 -16 15 9 11 40 -7z m180 3 c-1 -6 -9 -23 -19 -37
-15 -21 -17 -22 -17 -6 0 11 7 28 17 38 19 21 22 22 19 5z m-206 -27 c8 -5 11
-10 5 -10 -5 0 -17 5 -25 10 -8 5 -10 10 -5 10 6 0 17 -5 25 -10z m-36 -29 c4
-5 -3 -7 -14 -4 -23 6 -26 13 -6 13 8 0 17 -4 20 -9z m136 -21 c0 -5 -4 -10
-10 -10 -5 0 -10 5 -10 10 0 6 5 10 10 10 6 0 10 -4 10 -10z m75 2 c14 -10 15
-42 1 -42 -6 0 -19 12 -29 25 -17 24 -17 25 0 25 10 0 23 -4 28 -8z m70 -2 c3
-5 2 -10 -4 -10 -5 0 -13 5 -16 10 -3 6 -2 10 4 10 5 0 13 -4 16 -10z m80 0
c-11 -5 -27 -9 -35 -9 -13 -1 -13 0 0 9 8 5 24 9 35 9 l20 0 -20 -9z m-310
-20 c8 -13 -5 -13 -25 0 -13 8 -13 10 2 10 9 0 20 -4 23 -10z m85 -10 c24 -8
24 -8 -7 -9 -17 -1 -35 4 -38 9 -7 11 9 11 45 0z m271 -1 l91 -1 -4 -34 c-2
-19 0 -34 4 -34 4 0 8 -4 8 -10 0 -6 -26 -9 -62 -8 -63 1 -63 1 -18 8 35 6 29
7 -30 5 -41 -2 -86 0 -100 4 l-25 7 25 8 25 9 -27 4 c-28 4 -36 17 -18 28 6 3
10 1 10 -4 0 -6 7 -11 15 -11 25 0 17 18 -12 29 l-28 11 28 -5 c15 -3 69 -6
118 -6z m-291 -28 c0 -10 -77 -7 -87 3 -4 3 15 6 40 6 26 0 47 -4 47 -9z m-70
-45 c0 -3 -4 -8 -10 -11 -5 -3 -10 -1 -10 4 0 6 5 11 10 11 6 0 10 -2 10 -4z
m124 -2 c9 -3 13 -10 10 -15 -3 -6 5 -7 19 -4 36 9 46 -22 11 -35 -31 -12 -34
-12 -34 -1 0 5 8 11 18 14 9 2 -16 4 -56 5 -41 0 -76 3 -80 7 -4 3 17 5 46 4
28 -1 55 0 59 4 3 4 -11 8 -33 8 -38 1 -38 2 -9 9 17 4 31 8 32 9 1 0 8 -2 17
-5z m206 -21 c3 -2 -23 -3 -58 -1 -34 2 -62 7 -62 11 0 8 110 -1 120 -10z
m-345 -13 c11 0 15 -3 10 -9 -13 -11 -86 -1 -79 11 4 5 16 7 28 4 11 -3 30 -6
41 -6z m448 3 c-18 -2 -48 -2 -65 0 -18 2 -4 4 32 4 36 0 50 -2 33 -4z m-10
-20 c-29 -2 -78 -2 -110 0 -32 2 -8 3 52 3 61 0 87 -1 58 -3z m-468 -12 c14
-6 20 -17 20 -40 0 -36 1 -36 -36 -14 -32 19 -41 40 -10 23 26 -13 31 -13 31
3 0 8 -10 19 -22 25 -26 12 -13 15 17 3z m158 2 c-7 -2 -19 -2 -25 0 -7 3 -2
5 12 5 14 0 19 -2 13 -5z m80 -17 c4 -9 -2 -17 -13 -21 -10 -3 -21 -13 -25
-23 -5 -14 -7 -14 -15 -2 -14 23 -12 28 13 32 12 2 21 9 20 16 -4 17 14 15 20
-2z m277 2 c0 -10 -23 -12 -90 -10 -49 2 -90 8 -90 13 0 5 41 9 90 9 65 0 90
-3 90 -12z m-340 -8 c-36 -12 -80 -12 -80 0 0 6 24 10 53 9 41 -1 47 -3 27 -9z
m247 -16 c-3 -3 -12 -4 -19 -1 -8 3 -5 6 6 6 11 1 17 -2 13 -5z m61 -1 c-10
-2 -26 -2 -35 0 -10 3 -2 5 17 5 19 0 27 -2 18 -5z m-318 -15 c0 -4 -6 -8 -14
-8 -8 0 -17 4 -20 8 -2 4 4 8 15 8 10 0 19 -4 19 -8z m183 5 c-7 -2 -19 -2
-25 0 -7 3 -2 5 12 5 14 0 19 -2 13 -5z m203 -18 c14 -11 16 -15 4 -15 -11 0
-11 -3 3 -11 10 -6 27 -9 38 -6 15 4 30 -9 65 -54 l45 -59 -53 1 -53 2 40 7
40 7 -37 2 c-26 1 -41 7 -48 21 -6 11 -8 20 -5 20 3 0 0 6 -7 14 -7 8 -16 12
-20 9 -15 -8 -79 9 -75 21 3 8 -14 12 -57 13 -43 0 -54 -2 -36 -7 20 -7 16 -8
-21 -9 -30 -1 -51 4 -59 14 -14 16 -2 18 105 17 28 0 40 2 28 5 -42 9 -23 23
30 23 31 0 61 -6 73 -15z m-376 -15 c0 -5 -10 -10 -22 -10 -19 0 -20 2 -8 10
19 13 30 13 30 0z m427 4 c-3 -3 -12 -4 -19 -1 -8 3 -5 6 6 6 11 1 17 -2 13
-5z m1949 -24 c15 -24 13 -27 -35 -79 -54 -56 -68 -51 -26 11 14 20 25 39 25
42 0 4 -18 6 -40 6 -48 0 -52 16 -7 35 43 19 65 15 83 -15z m-2740 5 c21 -16
21 -16 -24 -20 -46 -4 -49 -11 -21 -43 23 -26 23 -26 -9 2 -35 32 -39 45 -20
64 16 16 50 15 74 -3z m471 9 c-3 -3 -12 -4 -19 -1 -8 3 -5 6 6 6 11 1 17 -2
13 -5z m967 -57 c-12 -92 -15 -103 -33 -114 -17 -11 -18 -9 -9 28 6 21 15 39
20 39 5 0 6 9 3 20 -8 26 4 82 16 74 5 -3 7 -24 3 -47z m-1099 33 c-27 -12
-43 -12 -25 0 8 5 22 9 30 9 10 0 8 -3 -5 -9z m150 0 c-3 -5 -15 -10 -25 -10
-10 0 -22 5 -25 10 -4 6 7 10 25 10 18 0 29 -4 25 -10z m742 -57 c-2 -16 -4
-5 -4 22 0 28 2 40 4 28 2 -13 2 -35 0 -50z m-857 37 c-20 -13 -43 -13 -35 0
3 6 16 10 28 10 18 0 19 -2 7 -10z m180 0 c0 -13 -20 -13 -40 0 -12 8 -9 10
13 10 15 0 27 -4 27 -10z m57 -6 c-3 -3 -12 -4 -19 -1 -8 3 -5 6 6 6 11 1 17
-2 13 -5z m135 -4 c11 0 16 -5 13 -11 -4 -6 -22 -8 -45 -4 -23 4 -41 2 -45 -4
-3 -6 -12 -11 -18 -11 -7 0 -6 4 3 10 13 8 12 10 -2 10 -10 0 -18 5 -18 11 0
8 15 10 46 5 26 -3 55 -6 66 -6z m-170 -22 c-8 -8 -20 -8 -44 -1 l-33 11 45 1
c33 1 41 -2 32 -11z m198 -19 c0 -5 -5 -7 -10 -4 -6 3 -20 3 -33 -1 -20 -7
-19 -9 13 -15 27 -5 20 -7 -33 -8 -43 -1 -66 3 -62 9 3 6 16 10 28 10 16 0 18
3 9 9 -9 5 5 9 37 9 29 1 51 -3 51 -9z m-215 -9 c17 -7 15 -9 -12 -9 -17 -1
-35 4 -38 9 -7 12 22 12 50 0z m12 -27 c-9 -2 -15 -9 -12 -14 3 -5 -1 -6 -10
-2 -13 5 -14 7 -3 14 7 5 20 8 28 8 11 -1 10 -3 -3 -6z m126 -10 c-13 -2 -33
-2 -45 0 -13 2 -3 4 22 4 25 0 35 -2 23 -4z m1457 -95 c0 -28 -44 -184 -55
-196 -7 -7 -56 -25 -110 -38 -144 -37 -182 -57 -195 -105 -6 -21 -15 -41 -19
-44 -11 -6 -47 37 -56 66 -8 24 50 105 107 151 39 30 304 178 321 178 4 0 7
-5 7 -12z m178 0 c7 -7 11 -26 11 -42 -1 -24 -3 -26 -6 -8 -2 12 -13 27 -23
32 -16 8 -22 6 -36 -14 -19 -30 -12 -46 24 -47 24 -2 25 -2 4 -6 -48 -9 -69
40 -32 77 23 23 41 25 58 8z m668 -148 c20 -80 53 -221 73 -315 l37 -170 -175
-7 c-97 -4 -229 -12 -293 -18 -64 -7 -122 -9 -127 -5 -6 3 -30 34 -52 68 -23
34 -51 72 -61 83 -19 22 -19 22 12 85 18 35 43 79 57 97 30 40 21 40 -69 2
-38 -16 -72 -30 -74 -30 -2 0 -4 9 -4 20 0 12 5 17 13 14 7 -2 60 16 118 40
106 47 139 55 139 35 0 -6 -7 -9 -15 -5 -8 3 -15 2 -15 -2 0 -5 -16 -14 -36
-21 -19 -7 -33 -15 -30 -18 3 -3 -15 -43 -39 -88 -25 -45 -45 -89 -45 -98 0
-11 13 -18 48 -22 26 -3 94 -15 151 -26 56 -10 115 -19 130 -19 14 0 76 20
136 45 61 25 122 45 138 45 15 0 27 5 27 10 0 6 -11 10 -25 10 -28 0 -260 45
-288 55 -35 14 -34 93 2 177 16 37 30 50 102 91 48 27 92 46 102 43 16 -4 18
0 12 22 -4 15 -8 28 -9 30 -2 1 -50 -19 -107 -44 -112 -50 -424 -178 -609
-250 -63 -25 -118 -50 -122 -57 -8 -12 -12 -267 -4 -267 2 0 23 18 47 40 60
55 63 40 4 -20 -27 -27 -46 -52 -43 -56 4 -3 50 -9 103 -14 53 -5 100 -12 103
-16 4 -4 -22 -4 -57 0 -35 3 -88 6 -118 6 l-53 0 2 177 3 176 85 33 c131 50
358 144 540 224 198 87 233 100 242 91 5 -4 24 -72 44 -151z m-2380 100 c127
-60 236 -135 283 -197 32 -42 33 -46 22 -83 -6 -22 -15 -40 -19 -40 -14 0 -32
24 -32 41 0 27 -56 55 -180 89 -63 18 -123 36 -132 41 -16 9 -68 150 -68 185
0 21 8 19 126 -36z m-254 -12 c-6 -6 -7 0 -4 19 5 21 7 23 10 9 2 -10 0 -22
-6 -28z m-665 -20 c-3 -8 -6 -5 -6 6 -1 11 2 17 5 13 3 -3 4 -12 1 -19z m-38
-157 c-18 -72 -34 -129 -37 -127 -2 3 10 64 28 136 18 72 34 129 37 127 2 -2
-11 -63 -28 -136z m371 99 c8 -5 11 -10 5 -10 -5 0 -17 5 -25 10 -8 5 -10 10
-5 10 6 0 17 -5 25 -10z m50 -20 c8 -5 11 -10 5 -10 -5 0 -17 5 -25 10 -8 5
-10 10 -5 10 6 0 17 -5 25 -10z m170 -70 c8 -5 11 -10 5 -10 -5 0 -17 5 -25
10 -8 5 -10 10 -5 10 6 0 17 -5 25 -10z m-322 -45 c-3 -3 -9 2 -12 12 -6 14
-5 15 5 6 7 -7 10 -15 7 -18z m1722 -182 c0 -1 -6 0 -12 2 -15 5 -111 -132
-103 -146 14 -21 36 -6 70 46 32 51 55 69 55 44 0 -6 19 -53 42 -105 31 -72
38 -98 30 -106 -28 -28 -7 -25 53 8 36 20 69 34 72 30 4 -3 4 -8 2 -9 -4 -4
-124 -81 -179 -115 -28 -17 -31 -22 -14 -22 11 0 42 7 68 16 41 14 50 14 57 3
12 -19 11 -29 -2 -29 -6 0 -63 -21 -127 -46 -106 -42 -222 -106 -222 -122 0
-4 -14 -21 -30 -39 -18 -19 -39 -59 -51 -98 -11 -38 -25 -65 -31 -63 -14 5
-47 98 -41 115 2 6 -18 85 -46 175 -27 89 -57 194 -65 231 -18 79 -31 107 -50
107 -14 0 -96 103 -96 120 0 24 22 5 52 -45 32 -53 50 -66 63 -45 4 6 24 19
45 30 21 11 45 26 54 35 10 11 36 17 75 18 48 1 65 -3 83 -19 23 -20 119 -77
123 -72 36 61 70 110 80 116 11 6 9 23 -10 87 -33 116 -18 115 21 -1 18 -55
34 -100 34 -101z m-1460 165 c10 -6 7 -7 -10 -2 -14 3 -32 11 -40 16 -10 6 -7
7 10 2 14 -3 32 -11 40 -16z m855 -70 c-15 -46 -31 -87 -36 -92 -15 -16 -11 6
15 80 32 93 38 106 43 100 3 -3 -7 -42 -22 -88z m-1095 26 c0 -8 -4 -14 -10
-14 -5 0 -10 9 -10 21 0 11 5 17 10 14 6 -3 10 -13 10 -21z m560 4 c10 -6 7
-7 -10 -2 -14 3 -32 11 -40 16 -10 6 -7 7 10 2 14 -3 32 -11 40 -16z m-893
-80 c-3 -8 -6 -5 -6 6 -1 11 2 17 5 13 3 -3 4 -12 1 -19z m200 6 c-3 -3 -12
-4 -19 -1 -8 3 -5 6 6 6 11 1 17 -2 13 -5z m-50 -10 c-3 -3 -12 -4 -19 -1 -8
3 -5 6 6 6 11 1 17 -2 13 -5z m-160 -46 c-3 -7 -5 -2 -5 12 0 14 2 19 5 13 2
-7 2 -19 0 -25z m65 16 c-12 -8 -28 -13 -35 -11 -7 3 -1 9 13 15 37 16 47 14
22 -4z m895 -16 c-3 -8 -6 -5 -6 6 -1 11 2 17 5 13 3 -3 4 -12 1 -19z m-308
-33 c0 -5 -6 -1 -14 9 -8 11 -15 24 -15 30 0 5 7 1 15 -10 8 -10 14 -23 14
-29z m-662 -17 c-3 -7 -5 -2 -5 12 0 14 2 19 5 13 2 -7 2 -19 0 -25z m970 -55
c-2 -16 -4 -3 -4 27 0 30 2 43 4 28 2 -16 2 -40 0 -55z m473 -4 c0 -5 -9 -9
-20 -9 -11 0 -20 -4 -20 -9 0 -5 -10 -16 -23 -24 l-23 -15 20 59 21 60 23 -26
c12 -14 22 -30 22 -36z m-1456 -8 c-5 -43 -4 -50 12 -54 11 -3 8 -4 -8 -4 -20
1 -27 6 -24 17 3 8 8 32 12 53 9 54 16 45 8 -12z m453 33 c-3 -3 -12 -4 -19
-1 -8 3 -5 6 6 6 11 1 17 -2 13 -5z m-82 -20 c-27 -7 -54 -13 -60 -13 -17 2
69 27 90 27 11 0 -2 -6 -30 -14z m605 -65 c0 -14 -5 -11 -31 17 l-24 27 28
-18 c15 -9 27 -21 27 -26z m-747 4 c-7 -2 -21 -2 -30 0 -10 3 -4 5 12 5 17 0
24 -2 18 -5z m347 -14 c-7 -11 -14 -18 -17 -15 -3 3 0 12 7 21 18 21 23 19 10
-6z m-277 4 c-7 -2 -21 -2 -30 0 -10 3 -4 5 12 5 17 0 24 -2 18 -5z m680 -50
c-7 -2 -21 -2 -30 0 -10 3 -4 5 12 5 17 0 24 -2 18 -5z m-65 -10 c-10 -2 -26
-2 -35 0 -10 3 -2 5 17 5 19 0 27 -2 18 -5z m2172 -13 c0 9 4 9 13 2 13 -11
67 -11 67 1 0 4 7 7 16 7 8 0 12 -4 9 -10 -3 -5 -1 -10 4 -10 6 0 11 5 11 10
0 6 7 10 15 10 8 0 15 -5 15 -11 0 -8 4 -8 13 -2 6 6 41 11 77 12 l65 1 -24
-19 c-13 -10 -47 -30 -75 -44 -43 -21 -58 -24 -96 -17 -26 4 -34 8 -20 9 14 0
36 9 50 18 17 12 25 13 28 5 2 -7 8 -10 12 -7 5 3 7 12 4 20 -4 11 -11 12 -24
5 -21 -11 -230 -9 -230 3 0 5 -4 6 -8 3 -4 -2 -14 0 -22 5 -11 8 -3 9 28 6 25
-3 42 -1 42 5 0 6 6 5 15 -2 12 -10 15 -10 15 0z m-2927 -7 c-7 -2 -19 -2 -25
0 -7 3 -2 5 12 5 14 0 19 -2 13 -5z m2792 -13 c3 -5 -3 -10 -15 -10 -12 0 -18
5 -15 10 3 6 10 10 15 10 5 0 12 -4 15 -10z m-209 -9 c-4 -5 -25 -12 -49 -16
-23 -4 -83 -18 -134 -31 -96 -25 -130 -30 -103 -15 15 9 186 56 230 64 45 8
61 7 56 -2z m-1911 -11 c25 -11 -1 -11 -35 0 -20 6 -21 8 -5 8 11 0 29 -3 40
-8z m-618 -6 c-3 -3 -12 -4 -19 -1 -8 3 -5 6 6 6 11 1 17 -2 13 -5z m1102 -63
c8 -5 9 -11 3 -15 -13 -8 -42 3 -42 15 0 11 21 11 39 0z m1826 -1 c3 -5 13 -6
23 -3 16 6 16 6 1 -9 -16 -16 -59 -15 -59 1 0 19 25 27 35 11z m52 -26 c-3 -3
-12 -4 -19 -1 -8 3 -5 6 6 6 11 1 17 -2 13 -5z m122 -35 c54 -11 76 -30 86
-71 l7 -28 -93 2 c-52 1 -76 3 -54 6 l40 5 -54 11 c-69 14 -86 42 -20 33 112
-17 123 -17 65 -2 -72 18 -97 35 -69 46 26 11 36 10 92 -2z m-175 -53 c69 -47
77 -58 35 -51 -32 6 -143 67 -154 85 -14 23 68 -1 119 -34z m12 17 c-7 -7 -26
7 -26 19 0 6 6 6 15 -2 9 -7 13 -15 11 -17z m-3008 -10 c-10 -2 -26 -2 -35 0
-10 3 -2 5 17 5 19 0 27 -2 18 -5z m2872 -18 c19 -14 28 -25 19 -26 -8 -1 -5
-4 6 -8 80 -26 225 -128 225 -158 0 -9 -145 -37 -230 -46 -22 -2 -25 -6 -22
-35 4 -37 -15 -65 -61 -88 -26 -14 -91 -17 -112 -5 -5 3 -12 6 -15 6 -47 6
-81 20 -96 40 -10 14 -22 25 -27 25 -17 0 -67 45 -67 61 0 9 -7 19 -15 23 -17
6 -20 26 -5 26 6 0 24 -10 40 -22 42 -31 48 -15 8 21 -18 17 -28 31 -21 31 6
0 18 -6 25 -13 29 -28 89 -69 94 -64 3 2 -10 15 -28 28 -18 13 -39 31 -46 41
-7 10 -22 18 -33 18 -10 0 -19 2 -19 4 0 2 -3 12 -6 20 -5 13 2 12 35 -6 23
-12 50 -30 61 -40 11 -11 25 -16 31 -13 6 4 -8 20 -31 37 -22 17 -39 33 -36
35 3 3 20 -7 39 -21 19 -14 37 -26 40 -26 3 0 23 -11 43 -25 44 -30 66 -33 36
-5 -12 11 -25 20 -31 20 -5 0 -11 3 -13 8 -1 4 -16 14 -32 22 -16 8 -28 19
-27 24 2 5 -3 13 -11 17 -7 5 -8 9 -2 9 6 0 61 -33 123 -74 61 -40 111 -70
111 -66 0 4 -17 20 -37 36 -62 46 -112 92 -106 98 3 3 -9 12 -28 20 -30 14
-31 15 -10 16 23 0 102 -60 174 -134 26 -26 33 -28 75 -22 55 7 142 37 142 48
0 15 -94 78 -126 84 -19 3 -36 10 -39 14 -3 5 5 6 17 3 18 -4 16 0 -9 17 -18
12 -33 26 -33 31 0 5 -7 9 -16 9 -14 0 -14 3 -4 15 15 18 10 20 50 -10z
m-2835 -15 c-16 -4 -43 -8 -60 -8 l-30 0 30 8 c17 4 44 8 60 8 l30 0 -30 -8z
m2787 -15 c16 -14 25 -25 19 -25 -12 0 -69 49 -57 50 4 0 21 -11 38 -25z
m-2644 -111 c-19 -20 -42 -34 -49 -32 -7 2 5 17 32 36 58 41 62 40 17 -4z
m252 3 c0 -2 -10 -12 -22 -23 l-23 -19 19 23 c18 21 26 27 26 19z m2046 -24
c-7 -7 -26 7 -26 19 0 6 6 6 15 -2 9 -7 13 -15 11 -17z m-2020 -17 c-19 -16
-24 -26 -16 -31 8 -5 0 -15 -22 -29 -40 -27 -81 -40 -75 -23 2 7 -2 19 -10 28
-13 15 -10 19 19 40 l33 23 -22 -25 c-13 -14 -23 -28 -23 -32 0 -13 27 -7 40
8 11 13 15 13 21 3 7 -10 11 -10 21 0 9 9 9 12 -2 12 -9 0 -3 10 15 25 17 13
35 24 40 24 6 0 -3 -10 -19 -23z m54 0 c0 -3 -4 -8 -10 -11 -5 -3 -10 -1 -10
4 0 6 5 11 10 11 6 0 10 -2 10 -4z m160 0 c0 -3 -4 -8 -10 -11 -5 -3 -10 -1
-10 4 0 6 5 11 10 11 6 0 10 -2 10 -4z m-56 -37 c-3 -5 -10 -7 -15 -3 -5 3 -7
10 -3 15 3 5 10 7 15 3 5 -3 7 -10 3 -15z m-84 2 c0 -5 -13 -14 -30 -21 -16
-7 -30 -18 -30 -25 0 -8 -8 -11 -18 -8 -11 2 -32 -6 -48 -19 -19 -15 -39 -22
-56 -20 -40 5 -35 22 6 22 18 0 39 6 45 14 7 8 25 17 39 21 15 3 41 14 57 25
34 23 35 23 35 11z m1938 -32 c3 -8 -6 -4 -20 9 -13 12 -28 19 -33 15 -4 -5
-5 -2 -1 5 7 11 12 11 29 -1 11 -7 23 -20 25 -28z m-1888 21 c0 -5 -2 -10 -4
-10 -3 0 -8 5 -11 10 -3 6 -1 10 4 10 6 0 11 -4 11 -10z m1839 -15 c6 3 14 -1
17 -9 3 -9 15 -16 25 -16 18 0 121 -68 132 -87 3 -5 8 -22 11 -39 7 -30 5 -32
-26 -38 -18 -4 -41 -7 -51 -7 -15 0 -16 -3 -7 -14 7 -8 16 -13 20 -10 5 3 52
-15 107 -39 54 -25 110 -48 126 -51 15 -4 29 -11 32 -15 8 -12 -62 -33 -88
-26 -12 3 -28 1 -36 -3 -9 -6 -5 -10 14 -15 36 -9 25 -18 -23 -21 -33 -2 -42
2 -54 24 -9 14 -14 31 -12 36 5 14 -48 88 -66 92 -11 3 -11 1 2 -10 15 -11 48
-85 48 -104 0 -3 -9 -3 -20 0 -11 3 -18 1 -14 -4 3 -5 14 -9 24 -9 18 0 36
-17 27 -26 -3 -4 -29 3 -142 40 -11 4 7 -7 40 -24 50 -26 54 -30 25 -24 -60
12 -136 53 -149 81 -15 32 -7 41 17 20 26 -24 36 -21 12 3 -11 11 -24 20 -29
20 -6 0 -13 5 -17 12 -5 7 -2 9 7 6 8 -3 23 -2 34 3 19 7 18 8 -3 8 -13 1 -32
11 -43 24 l-18 22 -1 -22 c0 -12 -6 -24 -12 -26 -8 -4 -7 -6 4 -6 11 -1 18
-14 23 -41 4 -22 11 -42 16 -46 13 -8 11 -20 -7 -38 -14 -15 -14 -16 5 -16 23
0 28 -15 9 -24 -7 -3 -3 -3 10 0 21 5 22 4 16 -38 -4 -24 -12 -65 -19 -93
l-12 -49 -129 -26 c-71 -14 -138 -31 -149 -37 -23 -13 -43 -40 -171 -233 -53
-80 -110 -161 -128 -180 -17 -20 -55 -68 -85 -108 -30 -39 -57 -70 -59 -67 -2
2 20 37 50 77 99 131 138 190 131 201 -3 5 -1 7 5 3 13 -8 41 39 73 122 17 45
41 81 82 124 31 33 57 62 57 64 0 14 -42 0 -54 -18 -9 -12 -16 -18 -16 -13 0
6 7 19 15 29 8 10 12 23 9 28 -8 12 -58 -63 -118 -177 -49 -92 -66 -118 -63
-94 3 15 102 205 121 229 24 33 35 59 26 65 -5 3 -12 -6 -16 -20 -3 -14 -12
-29 -19 -33 -7 -4 -24 -31 -39 -59 -42 -84 -128 -206 -136 -193 -5 8 -9 6 -14
-6 -3 -9 -9 -14 -12 -12 -3 3 15 37 41 76 38 60 85 152 85 168 0 3 -5 2 -12
-2 -11 -7 -10 -4 9 44 3 6 1 12 -4 12 -12 0 -39 -78 -30 -86 7 -7 -14 -50 -51
-107 -18 -27 -28 -35 -36 -27 -8 8 -7 15 4 23 17 13 75 145 68 153 -3 3 -18
-19 -33 -48 -33 -64 -64 -108 -75 -108 -15 0 -18 55 -4 82 8 15 14 31 13 35
-1 4 -1 10 1 13 1 3 3 26 5 51 1 25 6 61 11 80 4 19 7 37 6 41 -1 4 6 4 15 1
11 -4 14 -3 9 5 -4 8 2 16 16 21 21 9 21 10 3 11 -19 1 -19 1 -2 14 13 10 15
16 7 21 -9 5 -9 10 -1 18 6 6 11 19 11 29 0 13 8 18 28 19 24 2 24 2 4 6 -19
4 -22 10 -19 36 2 18 9 31 16 29 14 -3 15 15 1 23 -16 10 -11 25 9 25 10 0 37
-7 60 -15 23 -8 39 -10 36 -5 -3 6 -11 10 -16 10 -16 0 -82 30 -77 35 2 3 20
0 39 -5 l34 -9 -24 19 c-27 23 -15 27 15 5 10 -8 26 -14 34 -14 8 0 10 3 4 5
-15 6 -5 46 10 41 7 -2 10 -27 8 -70 -2 -37 1 -67 5 -67 5 0 9 8 9 18 0 9 4
42 8 72 5 30 8 64 8 75 l-1 20 15 -20 c8 -11 17 -30 21 -42 5 -23 14 -29 26
-16 4 3 0 14 -9 24 -9 11 -11 19 -5 23 5 4 14 -2 20 -12 12 -22 -5 -112 -22
-112 -8 0 -8 -3 0 -11 12 -12 7 -37 -14 -57 -16 -16 -17 -32 -2 -32 5 0 8 4 4
9 -3 5 -1 12 5 16 5 3 10 0 11 -7 0 -7 2 -25 3 -40 1 -16 -2 -28 -7 -28 -5 0
-5 -6 1 -12 5 -7 8 -36 6 -63 l-4 -50 40 -18 c51 -22 69 -22 86 1 31 40 -3
124 -49 121 -21 -2 -21 -2 1 -6 27 -5 24 -24 -6 -38 -12 -5 -22 -17 -22 -27 0
-23 -20 -34 -21 -11 -1 39 -1 209 1 218 1 6 3 15 5 20 1 6 3 25 3 43 1 21 6
31 13 26 8 -4 9 0 4 15 -4 14 -2 21 7 21 10 0 10 2 -1 9 -7 5 -10 14 -7 20 4
6 2 11 -3 11 -6 0 -11 5 -11 10 0 19 29 10 41 -12 7 -13 12 -24 11 -25 -1 -2
1 -3 5 -4 4 0 9 4 11 10 2 6 -1 11 -8 11 -6 0 -8 5 -5 10 3 6 1 10 -6 10 -10
0 -10 3 -1 12 9 9 17 5 37 -16 14 -15 25 -34 25 -42 0 -7 8 -14 18 -13 10 0
12 3 5 6 -18 7 -16 21 5 26 13 4 12 5 -4 6 -12 0 -25 8 -28 17 -5 14 -4 15 9
4 21 -18 19 2 -5 44 -24 40 -10 60 16 21 9 -14 23 -25 31 -25 12 0 13 3 4 13
-6 8 -8 17 -4 20 9 10 35 9 30 0 -2 -5 15 -28 39 -52 44 -43 58 -45 28 -3 -8
12 -12 22 -7 22 4 0 0 5 -10 11 -9 6 -15 14 -12 20 4 5 1 9 -6 9 -10 0 -10 2
0 13 10 10 15 9 25 -5 19 -26 26 -22 13 6 -9 19 -16 22 -29 15 -20 -11 -28
-11 -28 -1 0 13 53 33 63 23 6 -6 19 -5 34 2 21 9 24 16 19 41 -5 28 -4 29 9
12 7 -10 19 -15 24 -11z m-51 -5 c10 -16 10 -20 -2 -20 -7 0 -16 9 -19 20 -3
11 -2 20 2 20 3 0 12 -9 19 -20z m-1743 0 c-3 -5 -11 -10 -16 -10 -6 0 -7 5
-4 10 3 6 11 10 16 10 6 0 7 -4 4 -10z m49 -5 c3 -9 0 -15 -9 -15 -9 0 -12 6
-9 15 4 8 7 15 9 15 2 0 5 -7 9 -15z m-144 -5 c0 -5 -4 -10 -10 -10 -5 0 -10
5 -10 10 0 6 5 10 10 10 6 0 10 -4 10 -10z m50 0 c0 -5 -8 -10 -17 -10 -15 0
-16 2 -3 10 19 12 20 12 20 0z m60 -17 c0 -16 -75 -73 -94 -72 -20 0 -20 1 2
9 12 5 22 14 22 20 0 5 7 10 15 10 8 0 19 9 25 20 10 19 30 28 30 13z m1640
-3 c0 -5 -4 -10 -10 -10 -5 0 -10 5 -10 10 0 6 5 10 10 10 6 0 10 -4 10 -10z
m-1740 -10 c-8 -5 -24 -10 -35 -11 -11 -1 -2 -5 20 -9 l40 -6 -40 -8 c-22 -4
-53 -11 -70 -16 -25 -8 -23 -9 15 -4 34 4 42 2 34 -6 -18 -18 -95 -19 -131 -2
-37 18 -45 37 -11 29 15 -4 30 0 43 12 20 19 38 24 110 29 29 1 36 0 25 -8z
m50 6 c0 -3 -4 -8 -10 -11 -5 -3 -10 -1 -10 4 0 6 5 11 10 11 6 0 10 -2 10 -4z
m1620 -16 c0 -5 -4 -10 -10 -10 -5 0 -10 5 -10 10 0 6 5 10 10 10 6 0 10 -4
10 -10z m30 -20 c0 -12 -28 -25 -36 -17 -9 9 6 27 22 27 8 0 14 -5 14 -10z
m-1574 -8 c-3 -5 6 -15 19 -22 14 -7 25 -17 25 -22 0 -13 -16 -9 -30 7 -7 8
-20 15 -29 15 -11 -1 -7 -8 14 -25 36 -30 46 -31 63 -5 7 11 17 20 22 20 17 0
11 -28 -7 -39 -16 -9 -16 -10 -2 -11 9 0 19 7 23 15 3 8 12 15 21 15 19 0 20
-16 1 -23 -9 -4 -12 -14 -9 -26 6 -23 -20 -30 -32 -10 -4 6 -13 8 -21 5 -7 -3
-16 -1 -19 4 -8 13 -42 13 -47 0 -3 -11 -58 32 -58 46 0 11 52 63 63 63 5 1 6
-3 3 -7z m154 -2 c0 -5 -4 -10 -10 -10 -5 0 -10 5 -10 10 0 6 5 10 10 10 6 0
10 -4 10 -10z m-90 -10 c13 -8 13 -10 -2 -10 -9 0 -20 5 -23 10 -8 13 5 13 25
0z m75 -28 c-3 -3 -16 5 -28 17 l-22 23 28 -17 c15 -10 25 -20 22 -23z m75 28
c0 -5 -2 -10 -4 -10 -3 0 -8 5 -11 10 -3 6 -1 10 4 10 6 0 11 -4 11 -10z
m1240 -45 c0 -7 -13 -12 -30 -13 -16 0 -30 4 -30 10 0 5 7 8 15 5 21 -9 29 11
14 31 -11 13 -8 12 9 -2 12 -11 22 -24 22 -31z m-1252 16 c3 -8 -1 -12 -9 -9
-7 2 -15 10 -17 17 -3 8 1 12 9 9 7 -2 15 -10 17 -17z m82 9 c0 -5 -2 -10 -4
-10 -3 0 -8 5 -11 10 -3 6 -1 10 4 10 6 0 11 -4 11 -10z m6 -47 c-6 -6 -46 20
-46 30 0 4 11 0 25 -9 14 -9 24 -19 21 -21z m19 27 c3 -5 1 -10 -4 -10 -6 0
-11 5 -11 10 0 6 2 10 4 10 3 0 8 -4 11 -10z m-124 -15 c-1 -15 -24 -12 -29 3
-3 9 2 13 12 10 10 -1 17 -7 17 -13z m79 -26 c43 -26 52 -40 38 -56 -6 -7 -7
-13 -3 -13 4 0 2 -6 -4 -13 -6 -8 -8 -17 -4 -20 12 -13 -38 -7 -74 8 -46 19
-36 31 12 15 20 -7 38 -10 41 -7 3 2 -7 7 -21 11 -34 9 -32 27 3 20 23 -5 28
-2 29 15 2 23 -12 28 -20 8 -6 -15 -63 -12 -72 4 -5 8 24 49 35 49 3 0 21 -10
40 -21z m1110 5 c0 -2 -7 -4 -15 -4 -8 0 -15 4 -15 10 0 5 7 7 15 4 8 -4 15
-8 15 -10z m-1200 -11 c-1 -19 -18 -33 -34 -27 -13 5 -14 9 -5 20 12 15 39 19
39 7z m190 -7 c0 -2 -7 -7 -16 -10 -8 -3 -12 -2 -9 4 6 10 25 14 25 6z m917
-2 c-3 -3 -12 -4 -19 -1 -8 3 -5 6 6 6 11 1 17 -2 13 -5z m-847 -20 c0 -2 -7
-4 -15 -4 -8 0 -15 4 -15 10 0 5 7 7 15 4 8 -4 15 -8 15 -10z m1507 10 c-3 -3
-12 -4 -19 -1 -8 3 -5 6 6 6 11 1 17 -2 13 -5z m-1910 -10 c-3 -3 -12 -4 -19
-1 -8 3 -5 6 6 6 11 1 17 -2 13 -5z m357 -10 c9 -23 8 -24 -13 -24 -28 0 -52
11 -46 21 3 4 12 6 20 2 8 -3 15 0 15 6 0 17 17 13 24 -5z m106 8 c0 -13 -12
-22 -22 -16 -10 6 -1 24 13 24 5 0 9 -4 9 -8z m-442 -31 c-7 -12 -18 -21 -25
-21 -6 0 -2 11 10 24 26 29 34 27 15 -3z m52 9 c0 -6 -7 -13 -15 -16 -8 -4
-12 -11 -9 -16 3 -5 -9 -23 -27 -39 -54 -46 -119 -91 -119 -81 0 6 12 18 27
27 15 10 38 31 51 46 13 16 30 29 37 29 7 0 16 14 20 30 6 27 35 44 35 20z
m34 -6 c9 -3 12 -12 9 -22 -6 -13 -8 -13 -14 4 -6 17 -8 16 -19 -11 -13 -33
-107 -124 -130 -125 -10 0 -9 4 5 14 40 28 100 92 112 119 14 29 14 30 37 21z
m306 -4 c0 -5 -6 -10 -14 -10 -8 0 -18 5 -21 10 -3 6 3 10 14 10 12 0 21 -4
21 -10z m-459 -13 c-13 -17 -4 -28 17 -20 10 4 13 2 8 -5 -4 -7 -17 -12 -30
-12 -18 0 -22 5 -20 23 1 12 3 23 3 25 1 1 8 2 17 2 13 0 14 -3 5 -13z m519 9
c0 -2 -7 -6 -15 -10 -8 -3 -15 -1 -15 4 0 6 7 10 15 10 8 0 15 -2 15 -4z
m-570 -15 c0 -5 -7 -11 -15 -15 -8 -3 -12 -11 -10 -18 8 -20 -83 -55 -98 -38
-8 8 -8 14 -2 16 6 3 33 18 60 34 53 32 65 35 65 21z m452 -9 c-3 -9 -13 -11
-31 -7 -43 11 -45 23 -3 21 29 0 38 -4 34 -14z m248 14 c0 -2 -7 -7 -16 -10
-8 -3 -12 -2 -9 4 6 10 25 14 25 6z m-435 -16 c3 -5 20 -14 38 -19 l32 -9 -31
-1 c-18 -1 -42 8 -55 19 -20 16 -21 19 -7 20 9 0 20 -4 23 -10z m249 -35 c4
-25 5 -49 2 -54 -3 -4 -29 -8 -59 -8 -44 0 -53 3 -54 18 -1 14 5 19 23 19 13
0 24 -4 24 -10 0 -5 13 -10 30 -10 24 0 29 4 27 20 -4 26 -13 34 -27 25 -9 -6
-9 -10 1 -16 7 -4 10 -11 6 -16 -4 -4 -17 -2 -27 5 -11 7 -28 12 -39 12 -10 0
-22 7 -25 16 -5 13 -1 15 20 10 15 -4 40 -4 57 0 29 6 30 7 12 20 -18 14 -18
14 2 14 17 0 22 -8 27 -45z m56 25 c0 -5 -7 -10 -15 -10 -8 0 -15 5 -15 10 0
6 7 10 15 10 8 0 15 -4 15 -10z m37 4 c-3 -3 -12 -4 -19 -1 -8 3 -5 6 6 6 11
1 17 -2 13 -5z m106 -11 c3 -5 -14 -9 -36 -10 -32 -2 -37 0 -22 7 25 11 52 12
58 3z m-341 -20 c3 -44 2 -53 -7 -53 -6 0 -10 6 -10 13 0 6 -10 13 -23 15 -12
2 -20 7 -17 12 3 4 14 6 25 3 16 -4 19 -2 14 11 -3 9 -1 16 5 16 6 0 12 -8 13
-17z m238 1 c0 -8 -5 -12 -10 -9 -6 4 -8 11 -5 16 9 14 15 11 15 -7z m537 -6
c-3 -8 -6 -5 -6 6 -1 11 2 17 5 13 3 -3 4 -12 1 -19z m-873 2 c25 -9 26 -10 9
-30 -10 -11 -23 -20 -31 -20 -7 0 -10 -5 -6 -11 4 -8 0 -8 -15 0 -24 13 -29
33 -6 25 8 -4 15 -1 15 5 0 6 8 11 18 11 14 0 15 2 2 10 -20 13 -33 13 -25 0
3 -5 1 -10 -4 -10 -12 0 -14 13 -4 23 9 9 17 9 47 -3z m309 -10 c3 -13 10 -18
21 -14 9 3 16 1 16 -5 0 -6 -8 -11 -18 -11 -17 0 -18 -6 -10 -62 5 -35 14 -85
21 -113 11 -40 17 -50 35 -50 26 0 30 -20 4 -20 -9 -1 -16 -6 -15 -12 1 -6 -6
-9 -17 -6 -11 3 -20 3 -20 0 0 -3 29 -48 64 -99 34 -51 71 -109 81 -128 9 -19
29 -48 44 -63 l26 -28 -28 -21 c-15 -11 -24 -25 -21 -30 4 -7 2 -8 -4 -4 -19
11 -14 34 8 41 19 6 28 25 13 25 -9 0 -15 10 -124 182 -41 65 -76 118 -79 118
-3 -1 -16 -10 -29 -20 -20 -17 -21 -22 -10 -36 7 -9 -8 -3 -34 12 -26 16 -47
32 -47 36 0 3 14 10 32 13 51 12 84 37 80 63 -2 12 2 22 8 22 6 0 9 -4 6 -9
-3 -4 1 -17 10 -27 15 -19 15 -19 10 1 -3 11 -9 38 -15 60 -5 22 -12 65 -16
95 -3 30 -7 64 -8 75 -2 11 -9 19 -16 17 -7 -1 -10 2 -6 8 10 17 32 11 38 -10z
m-543 6 c0 -2 -7 -9 -15 -16 -12 -10 -15 -10 -15 4 0 9 7 16 15 16 8 0 15 -2
15 -4z m127 -21 c-25 -22 -47 -32 -47 -21 0 5 63 46 70 46 3 -1 -8 -12 -23
-25z m538 15 c3 -5 -3 -10 -14 -10 -10 0 -26 -3 -35 -6 -9 -3 -16 -1 -16 4 0
18 55 28 65 12z m-735 -15 c-7 -8 -22 -15 -34 -15 -17 1 -16 3 9 15 39 18 40
18 25 0z m1134 -11 c8 -22 8 -24 -7 -24 -7 0 -13 9 -13 20 0 24 11 26 20 4z
m-774 -4 c12 -7 8 -10 -15 -11 -22 0 -25 -2 -12 -7 16 -7 16 -9 3 -27 -15 -20
-15 -20 -16 0 -1 11 -4 14 -7 7 -2 -6 -9 -10 -14 -7 -11 7 19 55 35 55 6 0 18
-5 26 -10z m545 1 c3 -5 1 -12 -5 -16 -5 -3 -10 1 -10 9 0 18 6 21 15 7z
m-180 -11 c-28 -12 -55 -12 -55 0 0 6 17 10 38 9 30 0 33 -2 17 -9z m-65 -4
c0 -11 -19 -15 -25 -6 -3 5 1 10 9 10 9 0 16 -2 16 -4z m-105 -41 c13 -85 15
-106 5 -100 -5 3 -10 2 -10 -3 0 -5 -25 0 -55 12 -44 17 -54 25 -52 43 1 18 6
21 32 18 25 -4 23 -2 -9 8 -31 11 -36 15 -22 20 10 4 30 5 44 2 15 -2 9 1 -13
9 -44 15 -31 22 37 21 34 0 38 -3 43 -30z m190 25 c3 -5 -9 -14 -27 -19 l-33
-10 30 0 c17 1 35 0 40 -1 16 -2 -27 -19 -52 -19 -18 -1 -23 5 -23 23 0 18 7
26 23 29 12 2 25 5 29 6 4 0 9 -3 13 -9z m-337 -30 c1 -32 -12 -38 -40 -16
-24 18 -23 29 2 21 11 -3 20 -2 20 4 0 5 -8 12 -17 14 -12 3 -9 5 8 6 22 1 26
-3 27 -29z m732 14 c0 -8 -4 -12 -10 -9 -5 3 -10 10 -10 16 0 5 5 9 10 9 6 0
10 -7 10 -16z m-483 0 c-3 -3 -12 -4 -19 -1 -8 3 -5 6 6 6 11 1 17 -2 13 -5z
m477 -33 c4 -5 2 -42 -4 -83 -5 -40 -11 -97 -14 -127 -2 -30 -10 -58 -18 -62
-10 -7 -10 -9 0 -9 6 0 12 -7 12 -15 0 -17 -16 -20 -26 -4 -3 6 -5 68 -4 137
1 70 2 135 2 145 -1 16 1 17 15 5 15 -12 15 -11 5 9 -7 12 -12 24 -12 28 0 8
37 -12 44 -24z m899 22 c-7 -2 -19 -2 -25 0 -7 3 -2 5 12 5 14 0 19 -2 13 -5z
m-1365 -60 c7 -32 16 -66 18 -75 3 -10 1 -18 -5 -18 -11 0 -41 91 -41 127 0
42 15 24 28 -34z m83 22 c1 -13 3 -21 8 -40 0 -2 11 -1 24 4 16 6 26 4 37 -7
13 -14 12 -15 -4 -9 -22 9 -97 -3 -91 -13 3 -5 14 -6 25 -3 11 3 20 0 20 -6 0
-6 -9 -11 -21 -11 -11 0 -18 -4 -14 -9 3 -6 17 -6 34 -1 29 8 41 5 41 -11 0
-5 -6 -6 -14 -3 -8 3 -17 1 -21 -5 -7 -13 24 -15 42 -3 8 5 9 13 3 22 -15 23
-12 29 10 23 12 -3 19 -12 18 -22 -2 -10 3 -15 15 -15 9 1 17 -2 17 -6 0 -8
-15 -12 -92 -25 -21 -3 -38 -10 -38 -16 0 -9 29 -5 81 11 14 4 32 4 40 -1 8
-5 12 -9 9 -10 -79 -14 -94 -19 -83 -30 6 -6 22 -4 45 5 40 17 57 10 30 -11
-16 -13 -15 -14 6 -8 22 6 32 -10 10 -17 -15 -5 -2 -58 15 -58 6 0 12 -10 13
-22 0 -13 4 -31 8 -40 5 -10 4 -18 -1 -18 -5 0 -15 16 -23 35 -8 19 -17 35
-21 35 -4 0 -10 11 -13 25 -4 14 -11 25 -17 25 -6 0 -8 9 -4 20 4 14 2 20 -9
20 -23 0 -30 -20 -12 -39 9 -10 13 -21 9 -24 -3 -4 2 -14 13 -22 11 -9 14 -14
6 -15 -18 0 -43 28 -66 72 -10 21 -23 35 -27 32 -10 -6 -41 61 -63 135 -9 30
-16 56 -16 57 0 2 12 5 28 7 15 2 30 5 35 6 4 0 8 -6 8 -14z m36 9 c-3 -3 -12
-4 -19 -1 -8 3 -5 6 6 6 11 1 17 -2 13 -5z m204 -16 c7 -96 0 -200 -11 -193
-5 3 -10 1 -10 -4 0 -6 5 -11 11 -11 5 0 7 -4 4 -10 -3 -5 -15 -10 -27 -10
-16 0 -18 4 -12 18 4 9 8 33 8 52 1 19 6 38 11 42 6 5 6 8 -2 8 -9 0 -12 76
-4 123 3 18 31 5 32 -15z m-386 -66 c-8 -9 -13 1 -19 43 l-6 40 15 -39 c8 -22
13 -42 10 -44z m205 64 c0 -2 -9 -6 -20 -9 -11 -3 -18 -1 -14 4 5 9 34 13 34
5z m50 -42 c0 -8 -4 -12 -10 -9 -5 3 -10 10 -10 16 0 5 5 9 10 9 6 0 10 -7 10
-16z m-410 -39 c0 -8 -2 -15 -4 -15 -2 0 -6 7 -10 15 -3 8 -1 15 4 15 6 0 10
-7 10 -15z m425 5 c3 -5 1 -10 -4 -10 -6 0 -11 5 -11 10 0 6 2 10 4 10 3 0 8
-4 11 -10z m-298 -32 c-3 -8 -6 -5 -6 6 -1 11 2 17 5 13 3 -3 4 -12 1 -19z
m198 -196 c50 -70 79 -122 72 -129 -3 -2 -19 20 -36 49 -16 30 -52 83 -79 119
-27 36 -52 72 -56 80 -14 26 53 -55 99 -119z m-41 112 c3 -8 2 -12 -4 -9 -6 3
-10 10 -10 16 0 14 7 11 14 -7z m94 -110 c19 -25 24 -27 33 -14 8 11 9 9 5
-12 -5 -22 -3 -26 9 -22 10 4 15 0 15 -14 0 -12 5 -24 10 -27 12 -7 4 -25 -11
-25 -5 0 -9 6 -9 13 0 6 -25 43 -55 80 -30 38 -55 74 -55 80 1 12 8 4 58 -59z
m162 50 c0 -9 -5 -14 -12 -12 -18 6 -21 28 -4 28 9 0 16 -7 16 -16z m40 -24
c0 -5 -7 -10 -15 -10 -22 0 -18 -18 10 -52 26 -31 32 -48 15 -48 -5 0 -10 5
-10 11 0 6 -7 8 -17 4 -14 -5 -15 -3 -6 6 15 15 -15 49 -46 52 -11 1 -21 4
-21 8 0 14 28 29 44 23 9 -3 16 -1 16 5 0 6 7 11 15 11 8 0 15 -4 15 -10z m70
-32 c0 -5 -7 -8 -15 -8 -8 0 -15 2 -15 4 0 2 -3 12 -6 21 -6 15 -4 15 15 4 11
-8 21 -17 21 -21z m-35 -15 c11 -21 21 -41 23 -45 2 -5 -1 -8 -7 -8 -6 0 -11
5 -11 10 0 6 -11 23 -24 37 -14 15 -23 30 -20 35 10 16 20 8 39 -29z m-100
-22 c3 -5 1 -12 -5 -16 -5 -3 -10 1 -10 9 0 18 6 21 15 7z m-32 -31 c3 -11 1
-18 -4 -14 -5 3 -9 12 -9 20 0 20 7 17 13 -6z m57 -4 c0 -8 -7 -16 -15 -20
-15 -5 -21 14 -8 27 11 12 23 8 23 -7z m132 -11 c0 -5 -5 -11 -11 -13 -6 -2
-11 4 -11 13 0 9 5 15 11 13 6 -2 11 -8 11 -13z m-77 -25 c-3 -5 -1 -10 4 -10
6 0 11 -5 11 -11 0 -8 -5 -8 -15 1 -17 14 -20 30 -4 30 5 0 7 -4 4 -10z m115
-7 c0 -5 -4 -14 -9 -21 -6 -10 -10 -9 -14 7 -3 14 0 21 9 21 8 0 14 -3 14 -7z
m-157 -18 c-3 -9 -8 -14 -10 -11 -3 3 -2 9 2 15 9 16 15 13 8 -4z m127 -5 c0
-5 -7 -10 -16 -10 -8 0 -12 5 -9 10 3 6 10 10 16 10 5 0 9 -4 9 -10z m-80 -20
c0 -13 -28 -25 -38 -16 -3 4 0 11 8 16 20 13 30 12 30 0z m81 -27 c-12 -20
-14 -14 -5 12 4 9 9 14 11 11 3 -2 0 -13 -6 -23z m-235 2 c-3 -23 -12 -26 -13
-5 -1 11 2 20 7 20 4 0 7 -7 6 -15z m196 -7 c-7 -7 -12 -8 -12 -2 0 14 12 26
19 19 2 -3 -1 -11 -7 -17z m-332 -18 c6 -11 8 -20 6 -20 -3 0 -10 9 -16 20 -6
11 -8 20 -6 20 3 0 10 -9 16 -20z m468 -2 c-3 -7 -15 -14 -29 -16 -24 -4 -24
-3 -4 12 24 19 38 20 33 4z m-12 -56 c-17 -16 -18 -16 -5 5 7 12 15 20 18 17
3 -2 -3 -12 -13 -22z m-162 2 c3 -8 2 -12 -4 -9 -6 3 -10 10 -10 16 0 14 7 11
14 -7z m-232 -11 c-10 -4 -10 -8 -2 -18 6 -8 17 -12 25 -9 7 3 16 1 20 -5 14
-23 -41 -9 -58 14 -18 25 -18 25 5 24 13 0 17 -3 10 -6z m318 -3 c0 -5 -5 -10
-11 -10 -5 0 -7 5 -4 10 3 6 8 10 11 10 2 0 4 -4 4 -10z m-20 -24 c0 -9 -30
-14 -35 -6 -4 6 3 10 14 10 12 0 21 -2 21 -4z m-10 -30 c0 -2 -7 -6 -15 -10
-8 -3 -15 -1 -15 4 0 6 7 10 15 10 8 0 15 -2 15 -4z m60 1 c0 -2 -12 -14 -26
-28 l-27 -24 18 28 c14 22 35 36 35 24z m-77 -44 c-9 -7 -25 -13 -35 -13 -10
0 -15 5 -13 13 3 6 19 12 35 12 27 0 28 -1 13 -12z m-63 -27 c0 -3 -4 -8 -10
-11 -5 -3 -10 -1 -10 4 0 6 5 11 10 11 6 0 10 -2 10 -4z m-27 -90 c9 3 17 11
17 17 0 6 3 7 7 4 3 -4 -3 -16 -14 -27 -20 -18 -22 -18 -35 -2 -24 29 -34 49
-12 25 13 -15 26 -21 37 -17z"/>
<path d="M2152 4095 c6 -14 15 -25 20 -25 5 0 1 11 -8 25 -9 14 -18 25 -20 25
-2 0 2 -11 8 -25z"/>
<path d="M2170 4050 c0 -5 4 -10 9 -10 5 0 11 -12 14 -27 5 -32 32 -129 42
-155 4 -11 0 -18 -12 -21 -15 -4 -15 -5 3 -6 21 -1 30 -30 10 -32 -6 0 -2 -4
9 -9 19 -8 19 -8 -5 -18 l-25 -11 26 0 c21 -1 28 -8 40 -43 8 -24 15 -46 15
-50 1 -5 3 -11 4 -15 1 -5 2 -11 1 -15 0 -5 4 -8 10 -8 6 0 9 -7 5 -15 -3 -9
0 -15 9 -15 18 0 20 -16 3 -23 -9 -4 -8 -6 3 -6 10 -1 22 -21 32 -53 22 -68
59 -130 65 -106 2 9 12 20 23 23 20 7 25 21 10 27 -5 2 -12 32 -16 68 -3 36
-6 71 -7 78 -1 6 -8 12 -16 12 -12 0 -12 -3 -2 -15 10 -12 10 -15 -1 -15 -11
0 -12 -2 -1 -9 9 -5 12 -26 10 -65 -3 -57 -17 -69 -29 -25 -3 13 -20 54 -38
90 -17 36 -31 69 -31 73 0 5 -6 22 -13 39 -29 67 -36 97 -24 98 7 0 3 4 -8 9
-12 5 -14 9 -6 9 12 1 11 4 -2 14 -9 6 -18 21 -20 32 -1 11 -6 26 -10 33 -5 6
-6 12 -3 12 3 0 -1 18 -9 40 -8 22 -12 40 -9 40 2 0 -5 18 -16 40 -19 37 -40
53 -40 30z"/>
<path d="M2155 3990 c3 -5 8 -10 11 -10 2 0 4 5 4 10 0 6 -5 10 -11 10 -5 0
-7 -4 -4 -10z"/>
<path d="M2766 3975 c-9 -26 -7 -32 5 -12 6 10 9 21 6 23 -2 3 -7 -2 -11 -11z"/>
<path d="M2160 3960 c-13 -8 -12 -10 3 -10 9 0 17 5 17 10 0 12 -1 12 -20 0z"/>
<path d="M2740 3905 c0 -8 -5 -15 -12 -15 -6 0 -9 -3 -5 -6 3 -3 -8 -43 -25
-88 -17 -44 -31 -87 -31 -93 0 -7 -5 -13 -12 -13 -6 0 -11 -16 -12 -36 -1 -20
-5 -39 -10 -43 -4 -3 -9 -13 -11 -21 -8 -33 -34 -79 -45 -76 -7 1 -9 1 -4 -1
14 -9 7 -25 -8 -19 -11 4 -15 0 -13 -12 2 -13 -3 -16 -19 -14 -13 2 -23 -2
-23 -7 0 -6 5 -11 10 -11 6 0 10 -9 10 -21 0 -28 43 -22 49 6 2 11 8 31 14 45
6 14 11 27 12 30 1 3 7 19 14 35 6 17 14 36 16 43 2 6 9 12 15 12 6 0 8 4 5
10 -3 5 0 20 7 32 7 13 14 30 15 38 5 37 40 122 53 130 9 6 10 10 3 10 -8 0
-8 9 0 35 6 19 13 35 17 35 4 0 7 7 7 15 0 8 -4 15 -9 15 -4 0 -8 -7 -8 -15z"/>
<path d="M2293 3883 c9 -2 23 -2 30 0 6 3 -1 5 -18 5 -16 0 -22 -2 -12 -5z"/>
<path d="M2298 3863 c6 -2 18 -2 25 0 6 3 1 5 -13 5 -14 0 -19 -2 -12 -5z"/>
<path d="M2318 3823 c7 -3 16 -2 19 1 4 3 -2 6 -13 5 -11 0 -14 -3 -6 -6z"/>
<path d="M2393 3783 c9 -2 25 -2 35 0 9 3 1 5 -18 5 -19 0 -27 -2 -17 -5z"/>
<path d="M2568 3763 c-10 -2 -18 -9 -18 -14 0 -6 10 -5 23 2 37 20 36 23 -5
12z"/>
<path d="M2573 3723 c9 -2 23 -2 30 0 6 3 -1 5 -18 5 -16 0 -22 -2 -12 -5z"/>
<path d="M2528 3693 c7 -3 16 -2 19 1 4 3 -2 6 -13 5 -11 0 -14 -3 -6 -6z"/>
<path d="M2428 3653 c-10 -2 -18 -8 -18 -13 0 -4 9 -6 20 -3 11 3 20 9 20 14
0 5 -1 8 -2 8 -2 -1 -11 -3 -20 -6z"/>
<path d="M2540 3600 c0 -5 5 -10 11 -10 5 0 7 5 4 10 -3 6 -8 10 -11 10 -2 0
-4 -4 -4 -10z"/>
<path d="M2536 3571 c-4 -7 -5 -15 -2 -18 9 -9 19 4 14 18 -4 11 -6 11 -12 0z"/>
<path d="M2464 3543 c3 -10 8 -35 12 -55 3 -21 10 -38 15 -38 5 0 4 12 -1 26
-6 14 -10 39 -10 55 0 16 -5 29 -11 29 -6 0 -8 -8 -5 -17z"/>
<path d="M2650 3549 c0 -5 5 -7 10 -4 6 3 10 8 10 11 0 2 -4 4 -10 4 -5 0 -10
-5 -10 -11z"/>
<path d="M2490 3510 c0 -5 5 -10 11 -10 5 0 7 5 4 10 -3 6 -8 10 -11 10 -2 0
-4 -4 -4 -10z"/>
<path d="M2450 3399 c0 -5 5 -7 10 -4 6 3 10 8 10 11 0 2 -4 4 -10 4 -5 0 -10
-5 -10 -11z"/>
<path d="M2480 3370 c-8 -5 -10 -10 -5 -10 6 0 17 5 25 10 8 5 11 10 5 10 -5
0 -17 -5 -25 -10z"/>
<path d="M2545 3370 c-3 -5 -1 -10 4 -10 6 0 11 5 11 10 0 6 -2 10 -4 10 -3 0
-8 -4 -11 -10z"/>
<path d="M2472 3288 c-40 -25 -41 -44 -2 -53 61 -13 92 22 52 58 -16 15 -20
14 -50 -5z"/>
<path d="M2352 4160 c0 -14 2 -19 5 -12 2 6 2 18 0 25 -3 6 -5 1 -5 -13z"/>
<path d="M2430 4075 c0 -8 4 -15 10 -15 5 0 7 7 4 15 -4 8 -8 15 -10 15 -2 0
-4 -7 -4 -15z"/>
<path d="M2398 4063 c7 -3 16 -2 19 1 4 3 -2 6 -13 5 -11 0 -14 -3 -6 -6z"/>
<path d="M2430 4035 c0 -8 4 -15 10 -15 5 0 7 7 4 15 -4 8 -8 15 -10 15 -2 0
-4 -7 -4 -15z"/>
<path d="M2983 3953 c-18 -6 -16 -16 7 -31 16 -10 24 -10 40 0 11 7 20 18 20
24 0 10 -43 15 -67 7z"/>
<path d="M3423 3923 c-3 -8 -3 -17 1 -20 6 -6 36 15 36 27 0 13 -32 7 -37 -7z"/>
<path d="M3214 3885 c-18 -13 -18 -14 8 -24 15 -6 35 -8 43 -6 8 3 23 7 32 10
22 7 6 21 -33 28 -20 4 -39 1 -50 -8z"/>
<path d="M3151 3814 c-30 -18 -59 -31 -64 -27 -6 3 -7 1 -3 -6 4 -6 2 -19 -5
-27 -15 -18 90 41 128 73 42 34 6 26 -56 -13z"/>
<path d="M3254 3828 l-19 -21 28 18 c28 18 33 25 19 25 -5 0 -17 -10 -28 -22z"/>
<path d="M3038 3773 c6 -2 18 -2 25 0 6 3 1 5 -13 5 -14 0 -19 -2 -12 -5z"/>
<path d="M3114 3729 c-13 -21 29 -36 55 -20 11 7 10 11 -7 20 -26 14 -39 14
-48 0z"/>
<path d="M3693 3685 c0 -8 4 -15 9 -15 4 0 8 4 8 9 0 6 -4 12 -8 15 -5 3 -9
-1 -9 -9z"/>
<path d="M3673 3627 c-18 -12 -33 -25 -33 -29 0 -10 56 20 70 37 18 21 0 17
-37 -8z"/>
<path d="M3555 3550 c-3 -6 1 -7 9 -4 18 7 21 14 7 14 -6 0 -13 -4 -16 -10z"/>
<path d="M3085 3540 c-3 -5 3 -10 14 -10 12 0 21 5 21 10 0 6 -6 10 -14 10 -8
0 -18 -4 -21 -10z"/>
<path d="M3087 3512 c-9 -2 -15 -7 -12 -12 3 -5 1 -11 -5 -15 -13 -8 -13 -25
0 -25 10 0 46 49 39 53 -2 2 -12 2 -22 -1z"/>
<path d="M3278 3503 c-10 -2 -18 -8 -18 -13 0 -9 61 -20 73 -13 8 5 -22 33
-33 32 -3 -1 -13 -3 -22 -6z"/>
<path d="M3690 3480 c-9 -6 -10 -10 -3 -10 6 0 15 5 18 10 8 12 4 12 -15 0z"/>
<path d="M3522 3472 c-13 -4 -23 -10 -23 -14 1 -5 1 -12 1 -18 0 -5 13 -1 30
8 45 26 41 37 -8 24z"/>
<path d="M3524 3355 c-2 -22 1 -24 25 -19 36 9 51 24 23 24 -12 0 -22 5 -22
10 0 22 -25 8 -26 -15z"/>
<path d="M3395 3360 c3 -5 13 -10 21 -10 8 0 12 5 9 10 -3 6 -13 10 -21 10 -8
0 -12 -4 -9 -10z"/>
<path d="M3440 3355 c0 -16 16 -20 24 -6 3 5 -1 11 -9 15 -9 3 -15 0 -15 -9z"/>
<path d="M3290 3290 l-55 -7 65 -1 c36 -1 72 3 80 8 17 11 1 11 -90 0z"/>
<path d="M3208 3273 c7 -3 16 -2 19 1 4 3 -2 6 -13 5 -11 0 -14 -3 -6 -6z"/>
<path d="M3260 3250 c0 -5 -26 -11 -57 -12 -54 -1 -55 -2 -13 -5 55 -5 113 5
105 18 -8 12 -35 12 -35 -1z"/>
<path d="M3523 3242 c-7 -4 -10 -17 -6 -30 4 -18 10 -21 27 -16 29 9 32 13 20
31 -13 21 -25 25 -41 15z"/>
<path d="M2856 3205 c-9 -14 -13 -25 -9 -25 12 1 46 50 35 50 -6 0 -17 -11
-26 -25z"/>
<path d="M3460 3220 c-9 -6 -10 -10 -3 -10 6 0 15 5 18 10 8 12 4 12 -15 0z"/>
<path d="M2889 3174 c-12 -33 -5 -42 15 -21 12 12 13 17 3 20 -9 4 -9 6 1 6
14 1 17 21 2 21 -6 0 -15 -12 -21 -26z"/>
<path d="M3240 3190 l-45 -7 53 -1 c29 -1 52 2 52 8 0 6 -3 9 -7 8 -5 0 -28
-4 -53 -8z"/>
<path d="M3143 3173 c9 -2 23 -2 30 0 6 3 -1 5 -18 5 -16 0 -22 -2 -12 -5z"/>
<path d="M2840 3155 c-8 -9 -8 -15 -2 -15 12 0 26 19 19 26 -2 2 -10 -2 -17
-11z"/>
<path d="M3280 3150 c-8 -5 -10 -10 -5 -10 6 0 17 5 25 10 8 5 11 10 5 10 -5
0 -17 -5 -25 -10z"/>
<path d="M3303 3119 c3 -9 -1 -26 -9 -38 -15 -21 -15 -21 13 -9 15 6 30 14 33
17 3 3 3 5 1 4 -2 -2 -13 7 -24 20 -13 14 -18 16 -14 6z"/>
<path d="M3168 3103 c7 -3 16 -2 19 1 4 3 -2 6 -13 5 -11 0 -14 -3 -6 -6z"/>
<path d="M2933 3076 c-10 -11 -9 -15 2 -20 15 -5 39 17 28 27 -9 10 -16 8 -30
-7z"/>
<path d="M3118 3073 c6 -2 18 -2 25 0 6 3 1 5 -13 5 -14 0 -19 -2 -12 -5z"/>
<path d="M3143 3050 c-14 -6 -21 -15 -17 -24 3 -8 1 -24 -5 -35 -10 -18 -9
-20 6 -14 32 11 77 47 65 51 -7 2 -12 10 -12 18 0 16 -6 16 -37 4z"/>
<path d="M2787 3001 c-3 -12 -1 -21 3 -21 15 0 23 21 12 32 -6 6 -11 2 -15
-11z"/>
<path d="M2928 3013 c6 -2 18 -2 25 0 6 3 1 5 -13 5 -14 0 -19 -2 -12 -5z"/>
<path d="M2821 2949 c-7 -12 -10 -23 -8 -26 3 -3 11 5 17 17 6 12 10 23 8 25
-2 2 -10 -5 -17 -16z"/>
<path d="M2931 2944 c-42 -21 -36 -89 7 -77 25 6 37 39 25 69 -7 18 -11 19
-32 8z"/>
<path d="M2802 2829 c-21 -33 0 -42 31 -13 33 30 33 34 4 34 -12 0 -28 -10
-35 -21z"/>
<path d="M1930 4046 c0 -14 29 -31 38 -21 6 6 -18 35 -29 35 -5 0 -9 -6 -9
-14z"/>
<path d="M1967 3890 c3 -11 9 -20 13 -20 5 0 6 9 3 20 -3 11 -9 20 -13 20 -5
0 -6 -9 -3 -20z"/>
<path d="M2020 3903 c0 -4 5 -15 10 -23 8 -13 10 -13 10 2 0 9 -4 20 -10 23
-5 3 -10 3 -10 -2z"/>
<path d="M2000 3867 c0 -10 -4 -15 -10 -12 -12 7 -2 -54 12 -72 11 -14 -7 -27
-24 -17 -7 4 -8 3 -4 -4 10 -16 33 -15 39 1 3 8 1 20 -4 28 -12 19 -11 29 1
29 6 0 10 -6 10 -14 0 -8 7 -16 15 -20 8 -3 15 -1 15 4 0 6 -4 10 -10 10 -5 0
-10 7 -10 15 0 8 -7 15 -15 15 -17 0 -21 16 -5 22 6 2 6 8 0 18 -8 13 -10 12
-10 -3z"/>
<path d="M2050 3750 c8 -5 20 -10 25 -10 6 0 3 5 -5 10 -8 5 -19 10 -25 10 -5
0 -3 -5 5 -10z"/>
<path d="M1960 3740 c0 -6 7 -10 15 -10 8 0 15 2 15 4 0 2 -7 6 -15 10 -8 3
-15 1 -15 -4z"/>
<path d="M2060 3722 c0 -4 10 -9 22 -9 18 -2 20 0 8 7 -18 12 -30 13 -30 2z"/>
<path d="M2080 3696 c0 -2 11 -6 25 -8 13 -3 22 -1 19 3 -5 9 -44 13 -44 5z"/>
<path d="M2010 3679 c0 -5 5 -7 10 -4 6 3 10 8 10 11 0 2 -4 4 -10 4 -5 0 -10
-5 -10 -11z"/>
<path d="M2117 3649 c5 -17 2 -20 -18 -17 -16 2 -25 -2 -27 -14 -2 -11 3 -18
11 -18 22 0 53 33 49 53 -2 9 -7 17 -12 17 -4 0 -6 -9 -3 -21z"/>
<path d="M2145 3570 c-17 -6 -16 -7 8 -12 15 -3 27 -2 27 3 0 13 -14 17 -35 9z"/>
<path d="M2180 3526 c0 -2 8 -10 18 -17 15 -13 16 -12 3 4 -13 16 -21 21 -21
13z"/>
<path d="M1700 3935 c0 -8 4 -15 10 -15 5 0 7 7 4 15 -4 8 -8 15 -10 15 -2 0
-4 -7 -4 -15z"/>
<path d="M1725 3750 c-3 -5 -1 -10 4 -10 6 0 11 5 11 10 0 6 -2 10 -4 10 -3 0
-8 -4 -11 -10z"/>
<path d="M1795 3741 c-4 -3 53 -51 61 -51 1 0 -2 35 -5 52 -1 8 -49 7 -56 -1z
m49 -17 c5 -14 4 -15 -9 -4 -17 14 -19 20 -6 20 5 0 12 -7 15 -16z"/>
<path d="M1850 3510 c0 -5 5 -10 11 -10 5 0 7 5 4 10 -3 6 -8 10 -11 10 -2 0
-4 -4 -4 -10z"/>
<path d="M1960 3390 c8 -5 26 -10 39 -10 32 0 24 6 -19 14 -25 4 -31 3 -20 -4z"/>
<path d="M1976 3352 c-3 -5 8 -6 25 -4 16 2 29 6 29 8 0 8 -49 4 -54 -4z"/>
<path d="M1990 3330 c-13 -8 -12 -10 3 -10 9 0 17 5 17 10 0 12 -1 12 -20 0z"/>
<path d="M2030 3290 c-11 -8 -7 -9 15 -4 37 8 45 14 19 14 -10 0 -26 -5 -34
-10z"/>
<path d="M2040 3270 c-13 -9 -13 -10 0 -10 8 0 22 5 30 10 13 9 13 10 0 10 -8
0 -22 -5 -30 -10z"/>
<path d="M2210 2991 c30 -24 42 -27 34 -6 -4 8 -10 15 -14 15 -5 0 -17 3 -27
6 -13 4 -11 0 7 -15z"/>
<path d="M2040 2930 c-13 -8 -12 -10 3 -10 9 0 17 5 17 10 0 12 -1 12 -20 0z"/>
<path d="M2140 2926 c0 -2 9 -6 20 -9 11 -3 18 -1 14 4 -5 9 -34 13 -34 5z"/>
<path d="M2085 2900 c3 -5 8 -10 11 -10 2 0 4 5 4 10 0 6 -5 10 -11 10 -5 0
-7 -4 -4 -10z"/>
<path d="M2085 2860 c-3 -5 1 -10 9 -10 9 0 16 5 16 10 0 6 -4 10 -9 10 -6 0
-13 -4 -16 -10z"/>
<path d="M2181 2831 c-13 -10 -22 -23 -20 -29 2 -6 16 -1 33 13 33 27 21 42
-13 16z"/>
<path d="M1625 3660 c3 -5 11 -10 16 -10 6 0 7 5 4 10 -3 6 -11 10 -16 10 -6
0 -7 -4 -4 -10z"/>
<path d="M1698 3403 c12 -2 32 -2 45 0 12 2 2 4 -23 4 -25 0 -35 -2 -22 -4z"/>
<path d="M1790 3406 c0 -2 9 -6 20 -9 11 -3 18 -1 14 4 -5 9 -34 13 -34 5z"/>
<path d="M1720 3390 c-53 -5 -52 -6 30 -11 47 -3 86 -5 87 -4 13 8 -74 19
-117 15z"/>
<path d="M1670 3359 c0 -7 121 0 130 8 2 2 -26 3 -63 2 -37 -1 -67 -6 -67 -10z"/>
<path d="M4014 2826 c-50 -24 -95 -49 -99 -56 -6 -10 -3 -11 11 -6 25 10 195
66 200 66 2 0 4 -4 4 -9 0 -4 -25 -13 -55 -19 -95 -19 -154 -50 -171 -90 -16
-40 -14 -48 13 -34 10 5 69 20 131 32 75 16 112 28 112 37 0 15 -14 17 -38 4
-9 -5 -39 -11 -67 -14 l-50 -6 50 18 c28 11 60 20 73 20 12 1 22 7 22 14 0 29
-22 87 -33 87 -7 0 -53 -20 -103 -44z"/>
<path d="M4030 2690 c-63 -17 -116 -30 -118 -30 -8 0 -21 -55 -15 -61 5 -5 69
-20 143 -34 74 -14 143 -27 153 -30 13 -2 17 1 13 12 -3 8 -6 19 -6 24 0 5
-19 9 -42 9 -47 0 -48 8 0 12 32 2 40 17 27 50 -5 12 -17 12 -83 1 -114 -20
-132 -11 -24 12 82 17 93 21 90 39 -2 11 -7 21 -13 22 -5 2 -62 -10 -125 -26z"/>
<path d="M4105 2456 c-55 -18 -113 -39 -129 -48 l-29 -15 48 -16 c26 -9 51
-14 56 -11 5 3 12 -2 15 -10 5 -13 23 -16 89 -16 46 0 86 3 88 8 7 10 -23 142
-32 142 -3 -1 -51 -15 -106 -34z"/>
<path d="M3638 2381 c26 -39 52 -73 58 -75 6 -2 58 2 115 9 57 8 132 15 167
15 34 0 62 4 62 10 0 6 -7 10 -15 10 -9 0 -29 7 -46 15 -16 9 -103 29 -192 45
-88 17 -169 33 -179 36 -12 3 -3 -17 30 -65z"/>
<path d="M3610 1906 c0 -2 8 -10 18 -17 15 -13 16 -12 3 4 -13 16 -21 21 -21
13z"/>
<path d="M3530 1819 c0 -5 5 -7 10 -4 6 3 10 8 10 11 0 2 -4 4 -10 4 -5 0 -10
-5 -10 -11z"/>
<path d="M3555 1800 c3 -5 8 -10 11 -10 2 0 4 5 4 10 0 6 -5 10 -11 10 -5 0
-7 -4 -4 -10z"/>
<path d="M3580 1780 c0 -5 5 -10 10 -10 6 0 10 5 10 10 0 6 -4 10 -10 10 -5 0
-10 -4 -10 -10z"/>
<path d="M3450 1765 c7 -8 17 -15 22 -15 6 0 5 7 -2 15 -7 8 -17 15 -22 15 -6
0 -5 -7 2 -15z"/>
<path d="M3520 1736 c0 -2 7 -7 16 -10 8 -3 12 -2 9 4 -6 10 -25 14 -25 6z"/>
<path d="M1275 1781 c-3 -5 -1 -12 4 -15 5 -3 11 1 15 9 6 16 -9 21 -19 6z"/>
<path d="M3314 1747 c10 -7 34 -22 53 -35 20 -13 38 -21 41 -17 7 6 6 6 -45
39 -24 14 -48 26 -55 25 -8 0 -5 -5 6 -12z"/>
<path d="M3290 1721 c0 -5 7 -11 15 -15 8 -3 15 -1 15 3 0 5 -7 11 -15 15 -8
3 -15 1 -15 -3z"/>
<path d="M3253 1706 c4 -10 7 -22 7 -27 0 -5 7 -9 15 -9 18 0 5 42 -15 48 -9
3 -11 -1 -7 -12z"/>
<path d="M3330 1712 c0 -4 12 -15 26 -26 26 -18 26 -18 15 2 -10 19 -41 38
-41 24z"/>
<path d="M3310 1686 c0 -2 7 -6 15 -10 8 -3 15 -1 15 4 0 6 -7 10 -15 10 -8 0
-15 -2 -15 -4z"/>
<path d="M3420 1670 c19 -13 30 -13 30 0 0 6 -10 10 -22 10 -19 0 -20 -2 -8
-10z"/>
<path d="M3280 1650 c0 -5 5 -10 10 -10 6 0 10 5 10 10 0 6 -4 10 -10 10 -5 0
-10 -4 -10 -10z"/>
<path d="M3330 1650 c0 -5 5 -10 10 -10 6 0 10 5 10 10 0 6 -4 10 -10 10 -5 0
-10 -4 -10 -10z"/>
<path d="M3285 1620 c3 -5 10 -10 16 -10 5 0 9 5 9 10 0 6 -7 10 -16 10 -8 0
-12 -4 -9 -10z"/>
<path d="M3150 1589 c0 -5 5 -7 10 -4 6 3 10 8 10 11 0 2 -4 4 -10 4 -5 0 -10
-5 -10 -11z"/>
<path d="M3300 1590 c0 -5 5 -10 10 -10 6 0 10 5 10 10 0 6 -4 10 -10 10 -5 0
-10 -4 -10 -10z"/>
<path d="M3360 1560 c-12 -8 -10 -10 8 -10 13 0 20 4 17 10 -7 12 -6 12 -25 0z"/>
<path d="M3188 1553 c7 -3 16 -2 19 1 4 3 -2 6 -13 5 -11 0 -14 -3 -6 -6z"/>
<path d="M3310 1550 c0 -5 5 -10 10 -10 6 0 10 5 10 10 0 6 -4 10 -10 10 -5 0
-10 -4 -10 -10z"/>
<path d="M3027 1520 c4 -14 0 -20 -11 -20 -10 0 -14 -4 -11 -10 3 -5 14 -10
24 -10 12 0 17 7 15 23 -1 12 -3 25 -3 30 -1 4 -5 7 -10 7 -5 0 -7 -9 -4 -20z"/>
<path d="M3374 1529 c-7 -11 12 -29 31 -29 6 1 1 6 -10 12 -19 11 -19 11 0 19
16 6 17 8 3 8 -9 1 -20 -4 -24 -10z"/>
<path d="M3085 1510 c3 -5 8 -10 11 -10 2 0 4 5 4 10 0 6 -5 10 -11 10 -5 0
-7 -4 -4 -10z"/>
<path d="M3515 1500 c3 -5 11 -10 16 -10 6 0 7 5 4 10 -3 6 -11 10 -16 10 -6
0 -7 -4 -4 -10z"/>
<path d="M3075 1480 c3 -5 12 -10 20 -10 8 0 17 5 20 10 4 6 -5 10 -20 10 -15
0 -24 -4 -20 -10z"/>
<path d="M3360 1486 c0 -2 7 -7 16 -10 8 -3 12 -2 9 4 -6 10 -25 14 -25 6z"/>
<path d="M2750 1472 c8 -5 26 -13 40 -16 17 -5 20 -4 10 2 -8 5 -26 13 -40 16
-17 5 -20 4 -10 -2z"/>
<path d="M2996 1449 c6 -11 31 -12 37 -1 3 4 -6 8 -19 8 -13 1 -21 -2 -18 -7z"/>
<path d="M3075 1450 c-19 -8 -19 -9 3 -9 21 -1 33 -21 12 -21 -6 0 -6 -9 0
-25 5 -14 6 -25 1 -25 -4 0 -6 -13 -3 -30 2 -16 8 -27 13 -24 10 6 11 144 1
143 -4 0 -16 -4 -27 -9z"/>
<path d="M2780 1425 c46 -18 64 -17 25 0 -16 8 -37 14 -45 14 -8 0 1 -7 20
-14z"/>
<path d="M2989 1417 c5 -5 21 -7 37 -5 27 3 26 4 -8 9 -22 3 -34 1 -29 -4z"/>
<path d="M2844 1396 c2 -14 -1 -26 -6 -26 -6 0 -8 -6 -5 -14 3 -8 3 -17 0 -20
-3 -3 -7 -24 -9 -46 -2 -30 1 -40 11 -40 8 0 15 5 15 10 0 6 -5 10 -11 10 -8
0 -8 5 1 15 7 8 10 24 7 36 -3 11 0 22 7 25 15 6 14 66 -1 71 -7 3 -10 -6 -9
-21z"/>
<path d="M2780 1350 c0 -5 5 -10 11 -10 5 0 7 5 4 10 -3 6 -8 10 -11 10 -2 0
-4 -4 -4 -10z"/>
<path d="M2998 1353 c7 -3 16 -2 19 1 4 3 -2 6 -13 5 -11 0 -14 -3 -6 -6z"/>
<path d="M3180 1350 c0 -5 9 -10 21 -10 11 0 17 5 14 10 -3 6 -13 10 -21 10
-8 0 -14 -4 -14 -10z"/>
<path d="M2890 1340 c0 -5 5 -10 11 -10 5 0 7 5 4 10 -3 6 -8 10 -11 10 -2 0
-4 -4 -4 -10z"/>
<path d="M2998 1313 c7 -3 16 -2 19 1 4 3 -2 6 -13 5 -11 0 -14 -3 -6 -6z"/>
<path d="M2898 1290 c-7 -24 -3 -38 8 -28 3 4 4 17 2 30 l-3 23 -7 -25z"/>
<path d="M3030 1306 c0 -2 7 -7 16 -10 8 -3 12 -2 9 4 -6 10 -25 14 -25 6z"/>
<path d="M2891 1236 c-7 -8 -8 -17 -3 -20 6 -3 12 3 15 14 6 24 4 25 -12 6z"/>
<path d="M2810 1230 c0 -5 5 -10 10 -10 6 0 10 5 10 10 0 6 -4 10 -10 10 -5 0
-10 -4 -10 -10z"/>
<path d="M2660 1220 c0 -5 5 -10 10 -10 6 0 10 5 10 10 0 6 -4 10 -10 10 -5 0
-10 -4 -10 -10z"/>
<path d="M2845 1210 c3 -5 11 -10 16 -10 6 0 7 5 4 10 -3 6 -11 10 -16 10 -6
0 -7 -4 -4 -10z"/>
<path d="M2660 1189 c0 -5 11 -9 25 -9 14 0 25 2 25 4 0 2 -11 6 -25 8 -14 3
-25 1 -25 -3z"/>
<path d="M2783 1173 c-17 -42 -25 -73 -18 -73 3 0 10 12 16 26 5 15 12 25 14
22 9 -9 -55 -150 -95 -209 -23 -33 -40 -62 -38 -65 5 -5 99 139 115 176 33 75
45 141 28 147 -6 2 -15 -9 -22 -24z"/>
<path d="M2688 1153 c7 -3 16 -2 19 1 4 3 -2 6 -13 5 -11 0 -14 -3 -6 -6z"/>
<path d="M2827 1153 c-4 -3 -7 -11 -7 -17 0 -6 5 -5 12 2 6 6 9 14 7 17 -3 3
-9 2 -12 -2z"/>
<path d="M2663 1103 c-20 -42 -15 -52 7 -15 22 36 24 42 13 42 -5 0 -14 -12
-20 -27z"/>
<path d="M2625 1040 c-3 -5 -2 -10 4 -10 5 0 13 5 16 10 3 6 2 10 -4 10 -5 0
-13 -4 -16 -10z"/>
<path d="M2595 1000 c-3 -5 -1 -10 4 -10 6 0 11 5 11 10 0 6 -2 10 -4 10 -3 0
-8 -4 -11 -10z"/>
<path d="M1313 1696 c-4 -7 -15 -16 -23 -19 -11 -4 -9 -6 5 -6 11 -1 26 8 33
19 7 11 8 20 3 20 -6 0 -14 -6 -18 -14z"/>
<path d="M1358 1703 c7 -3 16 -2 19 1 4 3 -2 6 -13 5 -11 0 -14 -3 -6 -6z"/>
<path d="M1520 1625 c7 -8 17 -15 22 -15 6 0 5 7 -2 15 -7 8 -17 15 -22 15 -6
0 -5 -7 2 -15z"/>
<path d="M1780 1592 c0 -5 9 -12 21 -15 13 -3 19 -1 16 6 -5 15 -37 22 -37 9z"/>
<path d="M1915 1420 c3 -5 10 -10 16 -10 5 0 9 5 9 10 0 6 -7 10 -16 10 -8 0
-12 -4 -9 -10z"/>
<path d="M1990 1370 c0 -5 5 -10 10 -10 6 0 10 5 10 10 0 6 -4 10 -10 10 -5 0
-10 -4 -10 -10z"/>
<path d="M1995 1340 c3 -5 8 -10 11 -10 2 0 4 5 4 10 0 6 -5 10 -11 10 -5 0
-7 -4 -4 -10z"/>
<path d="M1955 1310 c-19 -8 -19 -9 2 -9 12 -1 25 4 28 9 7 12 -2 12 -30 0z"/>
<path d="M2005 1280 c3 -5 8 -10 11 -10 2 0 4 5 4 10 0 6 -5 10 -11 10 -5 0
-7 -4 -4 -10z"/>
<path d="M2188 1313 c7 -3 16 -2 19 1 4 3 -2 6 -13 5 -11 0 -14 -3 -6 -6z"/>
<path d="M2195 1290 c-3 -5 -1 -10 4 -10 6 0 11 5 11 10 0 6 -2 10 -4 10 -3 0
-8 -4 -11 -10z"/>
<path d="M2215 1200 c3 -5 8 -10 11 -10 2 0 4 5 4 10 0 6 -5 10 -11 10 -5 0
-7 -4 -4 -10z"/>
</g>
</svg>
